<?xml version="1.0" standalone="no"?>
<!DOCTYPE svg PUBLIC "-//W3C//DTD SVG 20010904//EN"
 "http://www.w3.org/TR/2001/REC-SVG-20010904/DTD/svg10.dtd">
<svg version="1.0" xmlns="http://www.w3.org/2000/svg"
 width="600.000000pt" height="400.000000pt" viewBox="0 0 600.000000 400.000000"
 preserveAspectRatio="xMidYMid meet">
<g transform="translate(0.000000,400.000000) scale(0.100000,-0.100000)"
fill="#000000" stroke="none">
<path d="M2939 2573 c-6 -7 -21 -13 -33 -13 -11 0 -30 -7 -40 -15 -11 -8 -32
-15 -47 -15 -15 0 -30 -4 -34 -9 -10 -18 -158 -82 -174 -76 -8 3 -12 3 -8 -1
8 -9 -59 -43 -85 -44 -9 0 -18 -3 -20 -7 -1 -5 -29 -20 -60 -36 -138 -66 -163
-149 -74 -244 12 -13 25 -23 30 -23 5 0 37 -13 70 -29 34 -16 70 -32 81 -35
19 -7 19 -8 3 -20 -16 -11 -18 -31 -18 -150 0 -129 1 -139 25 -177 25 -39 88
-87 143 -107 81 -30 68 -26 147 -46 107 -27 334 -14 402 23 10 5 44 22 75 36
59 28 113 75 124 107 3 10 9 18 13 18 4 0 8 63 10 139 2 134 1 140 -20 155
-21 15 -22 16 -3 21 10 4 33 12 49 19 l30 13 3 -95 c1 -56 -2 -100 -9 -108 -5
-7 -12 -35 -13 -62 -2 -27 -7 -55 -12 -63 -15 -24 -15 -49 0 -78 20 -37 39
-52 77 -56 37 -5 66 8 95 42 18 21 20 31 13 64 -5 22 -11 60 -13 85 -2 24 -11
53 -20 62 -13 15 -16 40 -16 121 0 82 -3 103 -15 107 -12 5 -4 16 30 48 40 38
45 47 45 85 0 47 -19 87 -53 112 -12 8 -89 46 -172 83 -212 97 -219 100 -226
109 -3 5 -8 8 -10 7 -6 -2 -40 9 -74 25 -16 8 -45 17 -62 20 -18 4 -33 10 -33
14 0 14 -110 8 -121 -6z m216 -55 c38 -17 106 -47 150 -68 44 -20 91 -41 103
-45 13 -4 49 -19 80 -35 32 -15 74 -35 95 -45 54 -25 87 -68 87 -114 0 -51
-28 -78 -127 -121 -134 -58 -276 -120 -339 -150 -152 -71 -226 -76 -350 -22
-38 16 -139 59 -224 96 -85 36 -163 71 -172 76 -10 6 -24 10 -31 10 -22 0 -85
65 -93 95 -9 36 19 89 60 114 17 11 74 38 126 60 52 23 109 48 125 56 112 51
144 65 149 65 3 0 30 11 60 25 115 53 185 53 301 3z m456 -470 c0 -7 0 -55 -1
-106 -2 -86 0 -95 20 -109 19 -13 21 -22 17 -56 -3 -22 -1 -50 5 -63 27 -58
-32 -115 -97 -94 -18 6 -36 18 -39 26 -9 25 -7 72 4 79 6 3 10 31 10 61 0 30
5 54 10 54 6 0 10 41 10 103 0 57 3 107 7 110 11 12 53 8 54 -5z m-1007 -64
c13 -12 16 -40 16 -136 l0 -121 33 -31 c43 -40 158 -84 257 -98 156 -23 358
24 438 101 l32 32 0 115 c0 116 9 154 35 154 26 0 30 -27 25 -164 -5 -133 -5
-135 -35 -166 -39 -42 -95 -74 -186 -108 -68 -25 -85 -27 -220 -27 -92 0 -155
4 -170 12 -13 6 -49 19 -79 29 -74 23 -136 60 -164 98 -21 27 -25 46 -31 164
-5 98 -4 137 5 147 16 19 25 19 44 -1z m63 -14 c7 0 45 -15 85 -34 177 -83
272 -95 381 -50 72 29 102 43 174 77 l51 25 1 -119 c0 -116 -1 -120 -27 -148
-15 -16 -40 -35 -57 -44 -47 -23 -165 -56 -220 -60 -131 -11 -307 31 -371 89
-33 29 -35 34 -40 110 -3 43 -6 101 -8 127 -2 34 0 45 7 38 6 -6 17 -11 24
-11z"/>
<path d="M2940 2481 c-53 -18 -249 -102 -280 -119 -8 -5 -65 -30 -126 -56
-180 -77 -179 -106 8 -186 68 -29 150 -65 183 -80 258 -119 282 -122 445 -48
36 16 143 64 239 106 104 46 179 85 188 98 28 43 6 56 -378 224 -87 38 -172
71 -190 74 -21 3 -56 -2 -89 -13z m238 -67 c143 -63 190 -84 280 -125 34 -16
66 -29 70 -29 16 0 52 -41 46 -51 -3 -6 -45 -29 -93 -51 -47 -22 -98 -46 -113
-54 -14 -8 -33 -14 -42 -14 -9 0 -16 -4 -16 -10 0 -6 -3 -9 -7 -8 -9 1 -32 -8
-126 -52 -37 -17 -77 -32 -88 -33 -10 -1 -19 -5 -19 -9 0 -4 -26 -8 -57 -8
-52 0 -125 20 -181 49 -32 17 -153 71 -158 71 -3 0 -39 16 -80 35 -40 19 -78
35 -84 35 -5 0 -10 5 -10 11 0 5 -4 7 -10 4 -5 -3 -10 -1 -10 5 0 6 -4 9 -9 5
-12 -7 -43 24 -38 38 2 6 11 14 20 19 9 4 25 13 35 18 9 6 24 13 32 16 55 22
88 37 112 50 14 7 33 14 42 14 9 0 16 4 16 8 0 5 19 14 43 21 23 7 50 20 60
29 9 8 17 12 17 9 0 -3 33 9 73 28 106 50 139 47 295 -21z"/>
<path d="M3570 1781 c0 -21 5 -31 16 -31 11 0 14 8 12 27 -4 39 -28 42 -28 4z"/>
<path d="M3574 1717 c-7 -20 -2 -47 11 -50 14 -3 19 43 6 56 -7 7 -12 6 -17
-6z"/>
</g>
</svg>
