<?xml version="1.0" standalone="no"?>
<!DOCTYPE svg PUBLIC "-//W3C//DTD SVG 20010904//EN"
 "http://www.w3.org/TR/2001/REC-SVG-20010904/DTD/svg10.dtd">
<svg version="1.0" xmlns="http://www.w3.org/2000/svg"
 width="600.000000pt" height="599.000000pt" viewBox="0 0 600.000000 599.000000"
 preserveAspectRatio="xMidYMid meet">
<g transform="translate(0.000000,599.000000) scale(0.100000,-0.100000)"
fill="#000000" stroke="none">
<path d="M1245 5965 c-397 -42 -649 -167 -902 -447 -183 -202 -262 -403 -318
-798 -4 -25 -9 -677 -12 -1450 -6 -1615 2 -1992 41 -2183 66 -317 175 -514
397 -721 247 -229 502 -322 949 -346 258 -13 2930 -13 3201 0 429 22 665 102
909 311 42 35 96 86 120 114 25 27 53 59 64 70 39 42 130 190 162 265 73 168
109 341 123 590 12 224 13 2971 1 3225 -21 450 -118 711 -358 966 -182 194
-403 318 -667 375 -193 42 -286 44 -1975 43 -1221 -1 -1644 -5 -1735 -14z
m3430 -26 c76 -8 110 -13 180 -25 17 -2 55 -8 85 -13 30 -5 83 -18 118 -29 35
-12 81 -26 103 -32 21 -6 39 -15 39 -20 0 -5 6 -7 14 -4 8 3 17 1 21 -5 3 -6
15 -11 25 -11 10 0 22 -5 26 -12 5 -7 3 -8 -6 -3 -9 6 -11 4 -6 -4 5 -7 14
-10 22 -7 8 3 14 1 14 -4 0 -6 7 -10 15 -10 8 0 15 -4 15 -8 0 -8 50 -36 58
-33 7 3 29 -25 25 -31 -2 -5 2 -8 9 -8 25 0 207 -175 255 -245 19 -27 45 -62
59 -77 13 -16 21 -28 17 -28 -5 0 -3 -4 2 -8 8 -6 67 -116 71 -132 0 -3 6 -18
13 -35 7 -16 14 -37 16 -45 2 -8 4 -17 5 -20 1 -3 2 -8 1 -12 0 -4 6 -25 14
-48 15 -42 42 -175 51 -245 2 -22 7 -58 10 -80 6 -45 6 -3357 0 -3395 -3 -14
-7 -50 -10 -80 -11 -98 -37 -234 -57 -291 -10 -30 -19 -61 -19 -68 0 -11 -59
-136 -91 -191 -8 -13 -31 -46 -51 -72 -20 -27 -40 -57 -43 -68 -4 -11 -11 -18
-16 -15 -5 4 -9 2 -9 -3 0 -5 -38 -49 -85 -97 -47 -49 -85 -84 -85 -80 0 5
-17 -8 -37 -28 -20 -21 -43 -37 -50 -37 -8 0 -11 -5 -7 -12 4 -6 3 -8 -3 -5
-6 4 -22 -2 -36 -13 -14 -11 -30 -20 -36 -20 -6 0 -11 -5 -11 -10 0 -6 -3 -9
-7 -8 -11 2 -83 -34 -83 -42 0 -3 -12 -7 -27 -8 -15 -1 -30 -7 -34 -13 -4 -7
-12 -8 -19 -4 -9 6 -11 4 -6 -4 5 -8 3 -11 -5 -10 -16 3 -76 -9 -104 -21 -28
-11 -186 -38 -270 -45 -38 -4 -88 -9 -110 -11 -62 -8 -3142 -10 -3210 -2 -33
3 -100 9 -150 12 -49 3 -99 8 -110 10 -11 3 -56 12 -100 21 -158 33 -361 110
-404 153 -8 8 -30 21 -47 28 -18 7 -34 17 -36 21 -1 5 -28 28 -58 53 -50 40
-77 66 -183 180 -17 19 -33 40 -34 45 -2 6 -10 18 -18 27 -39 46 -98 158 -131
251 -20 56 -39 109 -42 117 -3 8 -7 22 -8 30 -2 8 -8 40 -14 70 -17 87 -30
197 -37 305 -8 136 -7 2969 1 3175 10 241 31 383 81 535 49 153 97 243 190
364 33 43 163 171 174 171 7 0 9 4 6 10 -3 5 5 15 19 22 14 6 26 15 26 20 0 4
4 8 10 8 5 0 19 8 30 18 11 9 48 34 83 54 34 21 68 42 75 48 6 6 12 8 12 4 0
-3 7 -1 15 6 8 7 15 9 15 5 0 -5 9 0 20 10 11 10 20 15 20 12 0 -3 30 5 68 19
89 33 272 69 406 79 33 3 61 7 64 9 9 9 3228 4 3307 -5z"/>
<path d="M1094 4301 c-10 -2 -25 -8 -33 -15 -12 -9 -13 -8 -6 3 5 9 4 12 -3 7
-25 -15 -3 -52 80 -137 48 -49 85 -89 82 -89 -2 0 4 -8 14 -18 9 -11 20 -17
25 -15 4 2 7 -4 7 -14 0 -15 2 -16 10 -3 7 12 10 12 10 1 0 -7 24 -37 54 -66
30 -30 52 -56 48 -59 -3 -3 -1 -6 5 -6 5 0 20 -9 33 -20 13 -11 20 -20 17 -20
-3 0 6 -13 21 -28 15 -15 28 -27 30 -26 6 4 172 -164 172 -174 0 -5 11 -17 24
-25 37 -25 131 -118 129 -128 -2 -5 4 -9 12 -9 8 0 15 -5 15 -11 0 -5 5 -7 10
-4 6 3 10 2 10 -4 0 -5 20 -29 45 -54 24 -24 41 -47 38 -51 -4 -3 0 -6 8 -6
15 0 51 -35 43 -42 -2 -3 7 -11 21 -18 15 -8 23 -20 20 -27 -2 -8 0 -11 5 -8
6 3 10 1 10 -5 0 -6 4 -9 9 -6 8 6 23 -17 25 -38 1 -5 8 -11 16 -13 13 -4 13
-3 0 6 -8 6 -10 11 -5 11 13 0 45 -37 45 -52 0 -6 3 -9 6 -6 6 7 93 -74 88
-83 -2 -3 8 -12 21 -19 13 -7 22 -17 19 -22 -3 -5 0 -7 8 -6 7 2 12 -3 10 -11
-2 -9 3 -11 13 -7 9 3 13 2 10 -3 -3 -5 4 -16 15 -24 11 -7 17 -16 14 -19 -3
-4 4 -9 15 -13 12 -3 21 -13 21 -21 0 -8 5 -12 10 -9 6 3 10 1 10 -5 0 -6 5
-8 13 -4 7 5 6 0 -3 -11 -13 -17 -13 -18 0 -13 9 3 27 -7 43 -23 16 -16 25
-29 20 -29 -4 0 7 -9 25 -20 20 -12 30 -25 26 -32 -4 -6 -3 -9 2 -6 5 4 20 -9
34 -28 14 -18 29 -34 33 -34 5 0 23 -16 41 -35 19 -19 40 -35 47 -35 8 0 31
-11 51 -25 20 -14 44 -25 52 -25 8 0 18 -5 22 -11 3 -6 15 -9 25 -6 11 3 17 2
14 -3 -3 -4 5 -8 18 -8 12 -1 55 -4 94 -8 46 -4 96 -2 135 6 35 7 74 14 88 17
13 2 28 9 31 15 4 6 12 7 19 3 9 -5 11 -4 6 3 -4 7 -1 12 9 12 16 0 59 25 83
47 6 6 21 15 32 18 11 4 18 11 14 16 -3 6 3 13 15 16 11 3 18 10 15 15 -3 5 3
12 15 15 11 3 23 13 26 23 3 10 26 33 50 52 24 18 45 38 45 44 0 6 12 20 28
32 51 40 67 53 52 46 -10 -5 -9 -1 4 14 10 12 23 19 29 15 6 -3 7 -1 3 5 -4 7
-1 12 8 12 9 0 16 4 16 8 0 13 77 92 90 92 5 0 10 4 10 10 0 13 92 106 102
102 4 -1 8 2 8 7 0 10 62 74 104 107 15 12 28 26 29 30 1 5 6 7 12 6 5 -2 7
-1 4 3 -7 7 120 135 133 135 4 0 8 5 8 10 0 11 36 50 46 50 7 0 29 22 35 35 2
6 9 9 14 7 6 -2 7 -1 4 2 -7 7 50 67 122 130 24 21 35 33 24 25 -11 -7 4 10
34 39 30 29 58 52 63 52 4 0 7 5 5 12 -1 7 3 12 10 13 6 0 15 4 20 9 5 5 2 6
-6 1 -9 -5 -12 -4 -7 3 4 7 14 12 22 12 8 0 13 3 13 8 -3 19 2 25 12 12 9 -13
10 -13 7 0 -2 8 2 16 7 18 6 2 14 10 18 18 5 8 13 12 18 8 5 -3 8 -2 7 3 -4
13 22 53 35 53 7 0 23 16 37 35 14 19 31 35 38 35 7 0 10 5 7 10 -3 6 -2 10 3
10 13 0 53 36 47 42 -3 3 2 11 12 19 15 12 16 12 9 -1 -4 -8 5 1 20 20 16 19
41 46 56 60 26 23 37 50 21 50 -4 0 -368 -359 -808 -799 -838 -836 -832 -830
-963 -876 -64 -22 -194 -30 -267 -16 -33 6 -98 30 -145 53 l-85 41 -804 804
-803 803 1939 0 c1537 0 1942 -3 1952 -12 10 -10 10 -7 -1 15 l-14 27 -1910 3
c-1051 1 -1919 0 -1930 -2z"/>
<path d="M990 4140 c-15 -28 -14 -2278 1 -2296 6 -7 19 -12 28 -11 23 4 62 32
54 40 -3 4 1 7 11 7 11 0 14 4 10 12 -5 8 -2 9 10 5 9 -4 15 -3 12 1 -7 11 11
37 26 37 7 1 12 6 10 13 -1 7 5 12 13 12 8 0 14 3 13 8 -4 10 39 52 46 45 3
-4 6 -1 6 5 0 17 41 62 57 62 7 0 12 3 11 8 -4 11 98 112 113 112 7 0 10 3 6
6 -8 8 34 54 45 48 4 -3 8 -1 8 5 0 13 90 106 91 94 0 -4 4 2 9 15 5 12 21 27
35 32 14 5 25 14 25 20 0 17 42 60 53 53 6 -3 7 -2 4 4 -6 10 26 43 43 43 6 0
9 6 8 13 -2 6 5 11 14 11 11 -1 14 4 11 14 -4 8 -2 13 3 10 5 -3 15 0 22 8 7
8 10 14 7 14 -3 0 28 34 69 75 41 41 80 75 86 75 5 0 10 5 10 12 0 14 77 88
91 88 6 0 8 3 6 8 -2 4 4 15 14 24 12 12 19 13 23 5 4 -11 10 17 7 36 0 4 4 7
10 7 16 0 59 52 59 70 0 9 -7 25 -15 36 -8 12 -11 25 -7 29 4 5 1 5 -5 1 -8
-4 -13 -2 -13 5 0 7 -2 10 -5 7 -7 -7 -175 159 -175 173 0 5 -4 8 -9 5 -4 -3
-13 6 -19 19 -7 14 -17 25 -23 25 -13 0 -99 89 -99 102 0 5 -4 6 -10 3 -5 -3
-10 1 -10 9 0 9 -4 16 -9 16 -5 0 -39 30 -76 66 -36 36 -60 62 -53 58 7 -4 0
6 -17 22 -16 16 -31 29 -33 28 -7 -4 -44 39 -47 55 -1 9 -8 15 -14 14 -13 -3
-447 428 -443 440 1 5 -2 6 -7 3 -5 -4 -19 7 -31 24 -25 35 -45 38 -60 10z
m34 -1 c-4 -7 225 -243 560 -578 l567 -567 -572 -572 c-314 -315 -572 -572
-573 -572 0 0 -1 514 -1 1143 0 750 3 1145 10 1149 14 11 17 10 9 -3z"/>
<path d="M1045 4029 c-4 -6 -5 -12 -2 -15 2 -3 7 2 10 11 7 17 1 20 -8 4z"/>
<path d="M1126 3967 c3 -10 9 -15 12 -12 3 3 0 11 -7 18 -10 9 -11 8 -5 -6z"/>
<path d="M1200 3866 c0 -2 8 -10 18 -17 15 -13 16 -12 3 4 -13 16 -21 21 -21
13z"/>
<path d="M1466 3598 c3 -5 10 -6 15 -3 13 9 11 12 -6 12 -8 0 -12 -4 -9 -9z"/>
<path d="M1850 3206 c0 -2 7 -7 16 -10 8 -3 12 -2 9 4 -6 10 -25 14 -25 6z"/>
<path d="M1936 3128 c3 -5 10 -6 15 -3 13 9 11 12 -6 12 -8 0 -12 -4 -9 -9z"/>
<path d="M2017 3056 c-4 -10 -1 -13 8 -9 8 3 12 9 9 14 -7 12 -11 11 -17 -5z"/>
<path d="M1763 2693 c0 -9 4 -10 14 -2 7 6 13 12 13 14 0 1 -6 2 -13 2 -8 0
-14 -6 -14 -14z"/>
<path d="M1616 2542 c-2 -4 -1 -14 4 -22 7 -11 9 -9 7 8 -1 24 -3 26 -11 14z"/>
<path d="M1452 2377 c-8 -9 -8 -17 0 -27 8 -13 9 -12 5 1 -3 9 0 22 6 28 6 6
8 11 5 11 -3 0 -10 -6 -16 -13z"/>
<path d="M1389 2283 c-13 -16 -12 -17 4 -4 9 7 17 15 17 17 0 8 -8 3 -21 -13z"/>
<path d="M1295 2220 c-2 -3 5 -6 15 -7 11 -1 22 2 24 5 3 4 -4 8 -15 8 -11 0
-22 -3 -24 -6z"/>
<path d="M1226 2137 c3 -10 9 -15 12 -12 3 3 0 11 -7 18 -10 9 -11 8 -5 -6z"/>
<path d="M1049 1973 c-13 -16 -12 -17 4 -4 9 7 17 15 17 17 0 8 -8 3 -21 -13z"/>
<path d="M4947 4136 c-19 -19 -27 -22 -36 -13 -9 9 -11 8 -6 -5 5 -12 1 -20
-9 -24 -9 -3 -14 -10 -11 -14 5 -8 -24 -25 -37 -22 -5 1 -7 -1 -6 -5 5 -13
-28 -53 -36 -45 -4 4 -6 0 -4 -8 2 -9 -3 -14 -12 -12 -8 2 -12 1 -8 -3 4 -4
-9 -20 -28 -37 -19 -17 -42 -43 -51 -59 -10 -16 -25 -29 -35 -29 -10 0 -18 -4
-18 -9 0 -10 -46 -61 -51 -57 -2 2 -13 -6 -24 -17 -11 -11 -14 -17 -5 -13 8 4
2 -4 -15 -18 -34 -30 -40 -35 -77 -75 -16 -16 -28 -35 -28 -43 0 -8 -3 -9 -8
-3 -4 6 -32 -15 -66 -49 -32 -32 -52 -55 -45 -50 8 4 -21 -27 -64 -69 -42 -42
-82 -77 -87 -77 -6 0 -10 -4 -10 -8 0 -14 -78 -90 -86 -83 -4 3 -4 1 0 -6 4
-7 -6 -19 -24 -29 -16 -10 -30 -22 -30 -26 0 -12 -58 -68 -71 -68 -6 0 -9 -7
-5 -15 3 -8 2 -14 -3 -12 -5 1 -18 -9 -30 -23 -13 -14 -20 -18 -16 -10 3 8 0
7 -7 -3 -7 -10 -28 -35 -45 -55 -18 -20 -33 -39 -33 -43 0 -14 63 -88 71 -84
5 4 6 -2 2 -12 -3 -10 -3 -15 1 -12 11 10 198 -180 190 -193 -4 -7 -3 -8 4 -4
7 4 33 -15 62 -44 27 -27 52 -50 55 -50 18 0 18 -1 5 -10 -13 -8 -13 -10 2
-10 10 0 35 -23 57 -50 22 -28 43 -50 46 -50 3 1 20 -11 38 -26 18 -14 26 -23
20 -19 -7 3 -13 1 -13 -4 0 -6 7 -11 15 -11 8 0 19 -9 25 -20 6 -11 17 -20 25
-20 7 0 23 -12 34 -27 12 -16 26 -35 33 -43 7 -8 25 -29 40 -48 15 -18 28 -32
30 -31 9 6 45 -26 41 -37 -2 -6 0 -15 6 -19 6 -3 11 -1 11 6 0 6 14 -5 30 -26
17 -21 30 -35 30 -31 0 9 14 -5 52 -52 15 -18 31 -32 35 -32 4 0 8 -4 8 -9 0
-13 144 -149 151 -142 4 3 5 -1 2 -10 -5 -14 21 -41 38 -38 4 0 10 -5 14 -11
6 -9 12 -9 28 1 12 8 23 18 25 24 1 5 -1 190 -5 410 -4 220 -7 720 -5 1112 1
472 -1 709 -8 705 -5 -3 -5 1 2 9 15 19 15 31 -4 52 -22 23 -38 22 -66 -7z
m49 -1141 c0 -630 0 -1145 -1 -1145 -2 0 -1145 1145 -1145 1148 0 4 1135 1140
1140 1141 3 1 5 -514 6 -1144z"/>
<path d="M4930 4000 c-12 -7 -10 -9 7 -7 12 0 19 5 17 9 -6 10 -6 10 -24 -2z"/>
<path d="M4861 3927 c-8 -10 -7 -14 2 -14 8 0 14 6 14 14 0 7 -1 13 -2 13 -2
0 -8 -6 -14 -13z"/>
<path d="M4781 3847 c-8 -10 -7 -14 2 -14 8 0 14 6 14 14 0 7 -1 13 -2 13 -2
0 -8 -6 -14 -13z"/>
<path d="M4726 3842 c-3 -5 1 -9 9 -9 8 0 12 4 9 9 -3 4 -7 8 -9 8 -2 0 -6 -4
-9 -8z"/>
<path d="M4686 3784 c-5 -14 -4 -15 9 -4 17 14 19 20 6 20 -5 0 -12 -7 -15
-16z"/>
<path d="M4699 3763 c-13 -16 -12 -17 4 -4 16 13 21 21 13 21 -2 0 -10 -8 -17
-17z"/>
<path d="M4621 3687 c-8 -10 -7 -14 2 -14 8 0 14 6 14 14 0 7 -1 13 -2 13 -2
0 -8 -6 -14 -13z"/>
<path d="M4523 3606 c-3 -6 -3 -8 2 -4 4 4 13 3 20 -2 8 -7 12 -5 12 3 0 16
-25 18 -34 3z"/>
<path d="M4286 3382 c-3 -5 1 -9 9 -9 8 0 12 4 9 9 -3 4 -7 8 -9 8 -2 0 -6 -4
-9 -8z"/>
<path d="M4209 3303 c-13 -16 -12 -17 4 -4 9 7 17 15 17 17 0 8 -8 3 -21 -13z"/>
<path d="M4225 3291 c-3 -5 -2 -12 3 -15 5 -3 9 1 9 9 0 17 -3 19 -12 6z"/>
<path d="M4136 3198 c3 -5 10 -6 15 -3 13 9 11 12 -6 12 -8 0 -12 -4 -9 -9z"/>
<path d="M3950 3056 c0 -2 8 -10 18 -17 15 -13 16 -12 3 4 -13 16 -21 21 -21
13z"/>
<path d="M3903 2985 c0 -8 4 -12 9 -9 5 3 6 10 3 15 -9 13 -12 11 -12 -6z"/>
<path d="M4056 2852 c-3 -5 1 -9 9 -9 8 0 12 4 9 9 -3 4 -7 8 -9 8 -2 0 -6 -4
-9 -8z"/>
<path d="M4130 2768 c-12 -8 -12 -9 2 -5 9 3 19 1 22 -6 3 -9 5 -9 5 0 1 18
-13 23 -29 11z"/>
<path d="M4216 2698 c3 -5 10 -6 15 -3 13 9 11 12 -6 12 -8 0 -12 -4 -9 -9z"/>
<path d="M4297 2617 c-3 -8 1 -14 8 -14 7 0 11 6 8 14 -3 7 -6 13 -8 13 -2 0
-5 -6 -8 -13z"/>
<path d="M4466 2462 c-2 -4 -1 -14 4 -22 7 -11 9 -9 7 8 -1 24 -3 26 -11 14z"/>
<path d="M4526 2378 c3 -5 10 -6 15 -3 13 9 11 12 -6 12 -8 0 -12 -4 -9 -9z"/>
<path d="M4621 2297 c-8 -10 -7 -14 2 -14 8 0 14 6 14 14 0 7 -1 13 -2 13 -2
0 -8 -6 -14 -13z"/>
<path d="M4755 2141 c-3 -5 -2 -12 3 -15 5 -3 9 1 9 9 0 17 -3 19 -12 6z"/>
<path d="M4853 2053 c0 -9 4 -10 14 -2 7 6 13 12 13 14 0 1 -6 2 -13 2 -8 0
-14 -6 -14 -14z"/>
<path d="M1496 3898 c3 -5 10 -6 15 -3 13 9 11 12 -6 12 -8 0 -12 -4 -9 -9z"/>
<path d="M1550 3815 c0 -7 30 -13 34 -7 3 4 -4 9 -15 9 -10 1 -19 0 -19 -2z"/>
<path d="M1644 3738 c-4 -7 -4 -10 1 -6 4 4 15 2 24 -5 14 -11 14 -10 2 6 -16
20 -18 21 -27 5z"/>
<path d="M1726 3662 c-2 -4 2 -16 10 -27 8 -10 14 -14 14 -8 0 7 -5 15 -10 18
-6 4 -8 11 -5 16 4 5 4 9 1 9 -3 0 -7 -3 -10 -8z"/>
<path d="M1806 3568 c3 -5 10 -6 15 -3 13 9 11 12 -6 12 -8 0 -12 -4 -9 -9z"/>
<path d="M1897 3497 c-3 -8 1 -14 8 -14 7 0 11 6 8 14 -3 7 -6 13 -8 13 -2 0
-5 -6 -8 -13z"/>
<path d="M4005 3420 c-3 -6 1 -7 9 -4 18 7 21 14 7 14 -6 0 -13 -4 -16 -10z"/>
<path d="M2145 3261 c-3 -5 -2 -12 3 -15 5 -3 9 1 9 9 0 17 -3 19 -12 6z"/>
<path d="M2190 3186 c0 -2 8 -10 18 -17 15 -13 16 -12 3 4 -13 16 -21 21 -21
13z"/>
<path d="M2305 3101 c-3 -5 -2 -12 3 -15 5 -3 9 1 9 9 0 17 -3 19 -12 6z"/>
<path d="M3616 3018 c3 -5 10 -6 15 -3 13 9 11 12 -6 12 -8 0 -12 -4 -9 -9z"/>
<path d="M3729 2917 c-65 -56 -133 -120 -119 -112 13 8 13 6 1 -8 -7 -9 -18
-14 -24 -10 -5 3 -7 1 -3 -5 3 -6 -3 -13 -14 -17 -11 -3 -20 -10 -20 -14 0
-13 -67 -81 -74 -74 -6 6 -10 -12 -7 -30 1 -5 -3 -6 -8 -3 -5 4 -19 -6 -30
-20 -12 -15 -21 -23 -21 -19 0 4 -18 -9 -40 -29 -22 -20 -45 -37 -50 -37 -19
-3 -25 -5 -73 -26 -59 -27 -47 -23 -114 -39 -64 -15 -253 -12 -313 5 -70 20
-80 23 -75 31 3 4 -2 11 -11 14 -8 3 -13 2 -9 -3 11 -18 -71 28 -94 53 -14 14
-30 26 -38 26 -7 0 -13 8 -13 18 0 14 -2 15 -10 2 -8 -13 -10 -13 -10 2 0 10
-12 24 -27 32 -16 8 -24 15 -19 16 5 0 -9 14 -30 31 -22 17 -38 36 -36 41 1 5
-1 8 -5 5 -5 -2 -25 13 -45 35 -21 21 -36 38 -33 38 3 0 -11 15 -32 32 -21 18
-42 39 -46 45 -4 7 -14 13 -22 13 -7 0 -15 6 -18 13 -3 9 -8 9 -18 -2 -12 -12
-12 -13 0 -6 9 5 12 4 7 -3 -4 -6 -13 -9 -21 -5 -8 3 -15 1 -15 -4 0 -11 -68
-83 -78 -83 -4 0 -16 -14 -27 -30 -11 -16 -25 -30 -32 -30 -6 0 -21 -16 -33
-35 -12 -19 -26 -35 -31 -35 -5 0 -26 -16 -46 -36 -21 -20 -31 -33 -23 -29 8
4 2 -6 -15 -22 -16 -16 -33 -28 -37 -26 -4 2 -12 -6 -19 -19 -6 -12 -21 -31
-32 -42 -11 -12 -16 -14 -12 -6 4 8 -13 -7 -39 -34 -25 -27 -46 -54 -46 -59 0
-6 -2 -8 -5 -5 -6 6 -105 -87 -105 -98 0 -10 -55 -64 -65 -64 -13 0 -39 -29
-48 -53 -4 -10 -17 -21 -31 -27 -13 -5 -28 -15 -32 -22 -6 -9 -3 -9 12 1 10 8
3 -1 -16 -19 -19 -19 -38 -33 -43 -32 -4 1 -6 -1 -5 -5 2 -5 -1 -10 -7 -13
-22 -10 -44 -34 -39 -42 3 -5 2 -7 -3 -6 -4 2 -9 -1 -10 -5 -1 -5 -22 -24 -47
-43 -26 -19 -46 -38 -46 -41 0 -3 8 0 18 8 19 15 -11 -12 -65 -58 -17 -15 -29
-31 -26 -36 2 -4 0 -6 -5 -5 -5 2 -32 -21 -60 -50 -46 -48 -50 -55 -40 -77 6
-14 14 -25 17 -25 28 0 3830 0 3842 0 9 0 21 12 27 26 7 14 8 23 3 20 -5 -3
-12 5 -15 19 -4 14 -11 25 -17 25 -6 0 -7 -6 -4 -12 7 -13 3 -10 -54 61 -18
22 -42 43 -52 46 -10 4 -19 11 -19 17 0 13 -71 84 -82 81 -4 -2 -8 2 -8 8 0
14 -92 104 -103 101 -5 -1 -6 2 -2 8 3 5 -5 15 -19 21 -14 7 -23 16 -20 21 3
4 -2 11 -10 14 -9 3 -13 10 -10 15 5 8 -9 13 -28 10 -4 0 -4 7 -1 16 4 11 3
14 -5 9 -7 -4 -12 -2 -12 3 0 6 -7 11 -15 11 -8 0 -15 6 -15 14 0 8 -13 25
-29 39 -17 14 -27 28 -23 32 4 5 2 5 -4 2 -6 -4 -23 8 -38 25 -14 18 -26 28
-26 23 0 -4 -11 7 -23 26 -13 19 -29 33 -36 31 -7 -1 -10 2 -7 7 4 5 -7 18
-24 27 -16 10 -30 22 -30 27 0 13 -167 177 -179 177 -6 0 -7 7 -4 17 4 11 3
14 -5 9 -7 -4 -12 -2 -12 3 0 6 -7 11 -17 11 -9 0 -14 3 -10 6 7 7 -115 130
-125 127 -5 -2 -7 0 -6 5 4 13 -65 82 -83 82 -10 0 -21 5 -25 12 -5 7 -3 8 6
3 9 -5 11 -4 6 3 -9 15 -7 16 -37 -11z m-1077 -396 c191 -108 435 -120 624
-32 101 47 147 84 317 254 l159 160 586 -584 c323 -321 588 -586 589 -589 2
-3 -865 -5 -1927 -5 l-1930 0 587 587 587 587 176 -173 c112 -110 195 -184
232 -205z"/>
<path d="M2216 2811 c-4 -5 -2 -12 3 -15 5 -4 12 -2 15 3 4 5 2 12 -3 15 -5 4
-12 2 -15 -3z"/>
<path d="M3792 2811 c-11 -7 -11 -9 0 -14 9 -3 15 1 15 9 0 8 -1 14 -1 14 -1
0 -7 -4 -14 -9z"/>
<path d="M3665 2731 c-3 -5 -2 -12 3 -15 5 -3 9 1 9 9 0 17 -3 19 -12 6z"/>
<path d="M2345 2720 c3 -5 8 -10 11 -10 2 0 4 5 4 10 0 6 -5 10 -11 10 -5 0
-7 -4 -4 -10z"/>
<path d="M4015 2581 c-6 -11 13 -26 22 -17 4 3 1 6 -6 6 -7 0 -9 5 -6 10 3 6
4 10 1 10 -3 0 -7 -4 -11 -9z"/>
<path d="M3446 2562 c-3 -5 1 -9 9 -9 8 0 12 4 9 9 -3 4 -7 8 -9 8 -2 0 -6 -4
-9 -8z"/>
<path d="M4084 2518 c-4 -7 -4 -10 1 -6 4 4 15 2 24 -5 14 -11 14 -10 2 6 -16
20 -18 21 -27 5z"/>
<path d="M3420 2490 c-9 -6 -10 -10 -3 -10 6 0 15 5 18 10 8 12 4 12 -15 0z"/>
<path d="M1825 2421 c-3 -5 -2 -12 3 -15 5 -3 9 1 9 9 0 17 -3 19 -12 6z"/>
<path d="M3208 2413 c7 -3 16 -2 19 1 4 3 -2 6 -13 5 -11 0 -14 -3 -6 -6z"/>
<path d="M4177 2407 c-3 -8 1 -14 8 -14 7 0 11 6 8 14 -3 7 -6 13 -8 13 -2 0
-5 -6 -8 -13z"/>
<path d="M4323 2245 c0 -8 4 -12 9 -9 4 3 8 9 8 15 0 5 -4 9 -8 9 -5 0 -9 -7
-9 -15z"/>
<path d="M4411 2176 c-8 -10 -9 -16 -1 -21 5 -3 10 -5 11 -3 4 18 7 38 4 38
-1 0 -8 -6 -14 -14z"/>
<path d="M4595 2010 c10 -11 20 -20 23 -20 3 0 -3 9 -13 20 -10 11 -20 20 -23
20 -3 0 3 -9 13 -20z"/>
<path d="M1410 2010 c-9 -6 -10 -10 -3 -10 6 0 15 5 18 10 8 12 4 12 -15 0z"/>
<path d="M4646 1931 c-3 -4 4 -7 14 -6 27 2 33 10 10 12 -11 1 -22 -2 -24 -6z"/>
<path d="M2621 2748 c5 -10 11 -18 12 -18 2 0 3 8 3 18 0 10 -6 19 -13 19 -8
0 -9 -6 -2 -19z"/>
<path d="M3279 2693 c-13 -16 -12 -17 4 -4 16 13 21 21 13 21 -2 0 -10 -8 -17
-17z"/>
<path d="M4486 2287 c3 -10 9 -15 12 -12 3 3 0 11 -7 18 -10 9 -11 8 -5 -6z"/>
</g>
</svg>
