<?xml version="1.0" standalone="no"?>
<!DOCTYPE svg PUBLIC "-//W3C//DTD SVG 20010904//EN"
 "http://www.w3.org/TR/2001/REC-SVG-20010904/DTD/svg10.dtd">
<svg version="1.0" xmlns="http://www.w3.org/2000/svg"
 width="600.000000pt" height="600.000000pt" viewBox="0 0 600.000000 600.000000"
 preserveAspectRatio="xMidYMid meet">
<g transform="translate(0.000000,600.000000) scale(0.100000,-0.100000)"
fill="#000000" stroke="none">
<path d="M1255 5950 c-38 -4 -103 -8 -143 -9 -40 0 -71 -4 -69 -8 3 -5 -12 -9
-34 -11 -21 -1 -51 -7 -65 -12 -14 -6 -35 -10 -48 -10 -12 0 -41 -9 -64 -20
-22 -11 -47 -20 -55 -20 -50 0 -297 -162 -395 -258 -38 -38 -92 -108 -92 -120
0 -5 -7 -12 -15 -15 -8 -4 -21 -21 -30 -39 -8 -18 -31 -59 -49 -90 -37 -61
-83 -179 -97 -243 -4 -22 -13 -60 -19 -85 -33 -131 -39 -424 -38 -2050 0
-1556 4 -1824 29 -1940 7 -30 13 -63 14 -72 1 -10 4 -21 8 -24 4 -4 7 -19 7
-32 0 -31 21 -92 32 -92 4 0 8 -11 8 -24 0 -45 120 -258 175 -311 11 -11 31
-34 43 -52 29 -40 147 -137 232 -188 36 -22 67 -42 70 -45 12 -12 186 -84 230
-95 3 -1 28 -5 55 -9 28 -4 66 -15 85 -24 32 -16 185 -17 1965 -17 l1930 0
109 28 c126 32 208 59 251 81 17 9 35 16 40 16 6 0 41 20 78 45 38 25 71 45
74 45 5 0 22 15 74 63 10 9 22 17 25 17 10 0 114 112 114 122 0 4 13 21 30 36
17 16 30 33 30 37 0 5 6 16 14 24 7 9 33 54 57 101 24 47 46 87 50 90 6 5 13
29 58 205 27 103 29 128 36 390 10 374 7 3233 -4 3455 -7 144 -14 195 -38 285
-31 112 -75 228 -98 255 -7 8 -23 35 -36 59 -38 69 -40 73 -111 158 -37 44
-83 92 -102 106 -19 15 -40 33 -48 40 -46 46 -221 143 -318 177 -19 7 -44 16
-55 20 -54 22 -247 51 -396 60 -188 11 -3390 11 -3504 0z m3309 -32 c-2 -3 24
-4 58 -2 45 3 56 1 38 -5 -21 -7 -16 -9 28 -10 29 -1 51 3 48 8 -3 4 16 4 42
-1 26 -6 79 -12 117 -14 39 -2 84 -6 100 -10 17 -3 40 -6 53 -6 12 0 22 -4 22
-8 0 -7 38 -17 85 -23 11 -1 29 -8 40 -14 11 -6 37 -14 58 -18 20 -4 34 -11
31 -16 -3 -5 4 -9 14 -9 11 0 25 -7 32 -16 8 -8 39 -27 71 -42 31 -15 58 -31
59 -37 1 -5 8 -9 17 -7 8 2 12 -1 9 -7 -3 -5 8 -20 26 -32 18 -13 53 -43 77
-66 25 -24 49 -43 53 -43 4 0 8 -5 8 -11 0 -6 10 -20 23 -31 12 -11 16 -17 10
-13 -8 4 -11 1 -7 -9 3 -8 12 -17 20 -20 8 -3 14 -12 14 -20 0 -7 7 -16 15
-20 8 -3 15 -12 15 -20 0 -8 11 -27 24 -43 34 -41 93 -171 100 -221 3 -24 8
-48 12 -53 21 -34 49 -243 47 -341 -1 -27 1 -48 5 -48 7 0 5 -3394 -2 -3470
-2 -25 -10 -83 -16 -130 -6 -47 -13 -104 -16 -126 -2 -23 -13 -62 -23 -85 -11
-24 -22 -55 -24 -69 -8 -50 -35 -112 -46 -106 -5 3 -11 -11 -15 -32 -5 -32
-15 -49 -66 -109 -5 -7 -10 -17 -10 -22 0 -6 -8 -7 -17 -4 -13 5 -15 2 -10
-11 8 -20 -31 -78 -46 -69 -6 3 -7 1 -3 -6 4 -6 0 -14 -8 -17 -9 -3 -16 -12
-16 -20 0 -8 -7 -14 -15 -14 -8 0 -15 -6 -15 -14 0 -8 -14 -20 -30 -28 -17 -7
-30 -17 -30 -22 0 -15 -42 -46 -62 -46 -10 0 -18 -4 -18 -10 0 -5 -7 -10 -15
-10 -9 0 -18 -7 -21 -15 -4 -8 -12 -15 -20 -15 -8 0 -14 -3 -14 -8 0 -4 -15
-13 -32 -21 -18 -7 -55 -24 -83 -36 -66 -30 -88 -39 -98 -37 -4 1 -23 -4 -42
-13 -20 -8 -42 -12 -50 -9 -8 4 -15 2 -15 -4 0 -6 -9 -8 -19 -5 -10 3 -28 0
-40 -6 -17 -10 -70 -15 -253 -25 -16 0 -28 -3 -28 -6 0 -6 -3077 -2 -3103 4
-9 2 -14 0 -11 -5 6 -11 -211 -6 -241 5 -16 6 -17 6 -5 -3 13 -9 13 -11 0 -11
-8 0 -33 5 -55 10 -22 5 -85 12 -140 16 -55 3 -111 8 -125 11 -14 2 -47 9 -74
14 -27 4 -54 13 -60 19 -5 5 -21 10 -36 10 -14 0 -57 15 -95 33 -39 19 -85 40
-102 48 -18 8 -33 20 -33 26 0 7 -6 13 -14 13 -7 0 -28 13 -47 29 -21 19 -36
26 -40 19 -4 -6 -10 -2 -14 11 -3 12 -11 19 -16 16 -5 -4 -13 4 -18 17 -6 13
-10 18 -10 11 -1 -16 -81 57 -81 74 0 7 -4 13 -10 13 -5 0 -10 7 -10 16 0 8
-5 12 -10 9 -6 -3 -10 1 -10 9 0 8 -10 22 -22 30 -12 9 -19 16 -14 16 5 0 3 7
-4 15 -7 9 -20 13 -27 10 -9 -3 -13 0 -10 7 6 16 -43 108 -57 108 -7 0 -6 3 2
8 9 6 7 13 -8 29 -11 12 -27 50 -37 85 -9 35 -22 66 -28 70 -5 4 -7 8 -4 8 3
0 0 24 -8 53 -21 79 -21 76 -38 287 -4 41 -8 790 -10 1665 -1 875 -3 1624 -4
1665 -1 124 21 385 41 480 6 30 11 58 10 63 -1 4 2 7 7 7 5 0 9 12 9 28 -1 29
50 152 89 214 13 21 23 42 23 48 0 6 5 8 10 5 6 -3 10 1 10 10 0 20 25 46 35
37 5 -4 5 -2 2 4 -6 10 16 47 50 82 7 7 20 26 30 42 9 17 23 30 31 30 7 0 10
5 7 10 -3 6 4 10 16 10 12 0 20 3 16 6 -7 8 17 34 31 34 6 0 23 14 39 30 15
17 36 30 45 30 10 0 18 4 18 10 0 5 16 17 35 26 19 9 35 20 35 25 0 5 5 9 12
9 11 0 80 29 120 51 10 5 32 9 48 9 18 0 29 4 25 10 -3 6 5 11 19 11 14 1 31
3 36 4 6 1 22 3 38 4 24 2 25 3 7 11 -18 7 21 11 123 12 12 0 22 4 22 9 0 5
11 3 25 -3 19 -9 31 -8 48 1 12 6 38 12 57 12 709 14 3322 20 3314 7z"/>
<path d="M4243 5903 c48 -2 126 -2 175 0 48 1 8 3 -88 3 -96 0 -136 -2 -87 -3z"/>
<path d="M2255 4970 c-247 -8 -355 -21 -422 -51 -23 -10 -48 -19 -55 -19 -8 0
-25 -8 -38 -17 -14 -10 -25 -17 -25 -15 0 1 -15 -3 -32 -10 -18 -7 -33 -16
-33 -19 0 -9 -58 -39 -75 -39 -14 0 -50 -26 -87 -64 -18 -18 -34 -26 -44 -22
-12 4 -15 2 -10 -9 3 -9 0 -15 -9 -15 -8 0 -14 -3 -13 -7 1 -5 -28 -38 -65
-75 -37 -37 -67 -71 -67 -75 0 -5 -16 -26 -35 -48 -20 -22 -45 -59 -56 -82
-11 -24 -24 -43 -29 -43 -4 0 -11 -15 -14 -34 -4 -19 -13 -39 -21 -46 -7 -6
-12 -20 -10 -30 2 -11 0 -22 -5 -25 -5 -3 -14 -24 -20 -46 -6 -22 -15 -37 -20
-34 -6 4 -10 1 -10 -4 0 -6 5 -11 11 -11 7 0 6 -8 -4 -23 -34 -52 -45 -327
-45 -1112 -1 -596 7 -928 23 -1040 6 -37 12 -56 38 -112 5 -12 7 -29 3 -38 -3
-9 1 -23 10 -32 8 -8 18 -28 21 -44 3 -16 9 -29 14 -29 5 0 9 -7 9 -16 0 -9 8
-28 18 -42 10 -15 26 -44 35 -64 10 -20 22 -40 27 -43 6 -4 8 -10 5 -14 -2 -5
7 -17 20 -27 14 -10 25 -23 25 -29 0 -6 9 -17 20 -25 11 -8 20 -19 20 -25 0
-6 9 -17 20 -25 11 -8 20 -19 20 -26 0 -6 11 -17 25 -24 13 -7 22 -17 19 -22
-3 -4 1 -8 8 -8 7 0 21 -12 30 -28 10 -15 18 -21 18 -13 0 8 14 0 34 -20 39
-39 69 -59 91 -59 9 0 18 -7 21 -15 4 -8 10 -13 14 -10 5 3 13 -2 18 -11 5 -9
13 -16 18 -16 17 -1 56 -18 69 -32 8 -8 37 -17 65 -21 27 -4 48 -11 45 -15 -7
-11 19 -19 81 -25 27 -3 57 -8 67 -11 11 -3 31 -9 45 -12 42 -9 1940 -8 2002
1 30 5 62 11 70 14 8 4 17 7 20 8 57 14 103 33 212 84 47 23 93 41 101 41 8 0
27 14 41 31 14 17 26 27 26 22 0 -4 7 0 15 11 8 10 19 15 26 10 8 -4 10 -3 5
4 -4 7 -1 12 8 12 9 0 16 7 16 15 0 8 6 15 13 15 17 0 124 106 132 131 4 11
11 17 16 14 5 -4 14 5 21 19 6 14 15 26 20 26 4 0 8 6 8 13 0 8 9 22 20 32 11
10 18 21 15 25 -2 4 6 17 20 30 13 12 21 28 18 36 -3 8 0 14 6 14 5 0 15 17
21 39 5 21 17 44 25 51 8 7 17 28 21 49 3 20 12 45 19 56 13 21 23 63 32 132
3 24 9 41 13 38 5 -3 9 436 10 976 0 818 -2 987 -14 1022 -8 23 -17 64 -20 91
-4 27 -13 61 -20 75 -8 14 -17 41 -21 60 -4 18 -18 49 -31 68 -13 20 -25 42
-25 49 -3 27 -4 30 -26 54 -13 13 -23 32 -23 42 0 10 -4 18 -10 18 -5 0 -10 6
-10 14 0 8 -11 23 -25 34 -14 11 -25 25 -25 31 0 6 -5 11 -10 11 -6 0 -14 8
-17 18 -9 23 -163 172 -179 172 -7 0 -14 3 -16 8 -5 12 -91 72 -103 72 -7 0
-20 9 -30 20 -10 11 -24 20 -30 20 -7 0 -18 7 -25 15 -7 8 -16 12 -22 9 -5 -3
-14 -2 -21 3 -7 5 -32 15 -57 22 -92 26 -176 50 -215 62 -46 14 -1360 21
-1760 9z m1750 -48 c33 -6 77 -14 98 -18 20 -3 40 -10 43 -15 3 -5 16 -9 29
-9 13 0 27 -4 30 -10 3 -5 14 -10 23 -10 9 0 44 -14 77 -30 33 -17 65 -30 72
-30 7 0 13 -5 13 -10 0 -6 16 -18 35 -27 19 -9 35 -20 35 -25 0 -4 5 -8 11 -8
6 0 17 -6 24 -12 7 -7 37 -33 66 -58 136 -116 237 -253 301 -410 6 -14 16 -36
23 -50 6 -14 18 -52 25 -85 8 -33 19 -63 24 -67 8 -5 11 -323 11 -1035 l0
-1028 -29 -103 c-17 -56 -33 -102 -38 -102 -4 0 -8 -7 -8 -15 0 -19 -41 -109
-52 -113 -4 -2 -8 -10 -8 -18 0 -12 -54 -103 -85 -142 -34 -43 -191 -202 -200
-202 -5 -1 -26 -14 -45 -30 -19 -17 -38 -30 -43 -30 -4 0 -17 -9 -29 -20 -12
-11 -30 -20 -40 -20 -10 0 -18 -3 -18 -8 0 -4 -15 -13 -32 -20 -18 -7 -41 -18
-50 -23 -10 -5 -23 -9 -29 -9 -6 0 -16 -6 -23 -13 -7 -7 -43 -19 -80 -26 -36
-7 -66 -17 -66 -21 0 -16 -197 -19 -1045 -20 -831 0 -1075 5 -1075 19 0 4 -28
13 -62 21 -75 16 -244 86 -268 110 -3 3 -17 11 -32 19 -16 8 -28 18 -28 23 0
4 -4 8 -10 8 -14 0 -99 66 -135 104 -132 142 -172 196 -230 316 -15 30 -31 63
-36 72 -5 10 -9 25 -9 33 0 8 -4 15 -9 15 -5 0 -11 12 -14 28 -3 15 -11 47
-17 72 -7 25 -14 70 -17 100 -3 30 -9 59 -14 64 -12 13 -12 1869 0 1881 5 6
12 33 15 60 8 80 18 125 27 131 5 3 9 21 9 40 0 19 4 34 8 34 5 0 14 18 21 39
14 49 68 145 128 229 47 66 195 222 210 222 5 0 19 10 31 23 11 12 38 31 59
42 21 11 40 23 43 26 11 14 127 69 158 75 17 4 32 10 32 14 0 7 24 14 98 27
18 3 35 9 38 14 3 5 26 9 52 10 26 0 56 4 67 9 30 13 1867 5 1940 -8z"/>
<path d="M1465 4610 c-3 -5 -1 -10 4 -10 6 0 11 5 11 10 0 6 -2 10 -4 10 -3 0
-8 -4 -11 -10z"/>
<path d="M2015 4549 c-27 -5 -58 -14 -67 -19 -10 -6 -27 -10 -37 -10 -11 0
-23 -4 -26 -10 -3 -5 -15 -10 -26 -10 -10 0 -19 -4 -19 -9 0 -5 -8 -11 -17
-14 -29 -9 -76 -40 -106 -69 -15 -16 -31 -28 -35 -28 -13 0 -121 -124 -133
-152 -6 -16 -15 -28 -19 -28 -4 0 -13 -15 -20 -32 -7 -18 -20 -51 -30 -73 -18
-40 -34 -109 -45 -195 -8 -60 -7 -1765 1 -1858 4 -40 11 -75 15 -78 5 -3 9
-16 9 -30 0 -23 3 -33 28 -81 7 -13 12 -28 12 -35 1 -32 176 -248 200 -248 6
0 10 -4 10 -10 0 -5 7 -10 15 -10 8 0 15 -4 15 -8 0 -8 29 -25 120 -74 19 -10
44 -18 55 -18 12 0 26 -5 33 -12 29 -29 123 -32 1057 -31 885 0 1024 3 1050
23 6 4 28 13 50 19 51 16 105 43 105 54 0 4 6 7 13 5 47 -11 287 250 287 312
0 10 6 20 13 23 7 3 19 31 26 63 7 33 18 65 25 73 16 20 16 2009 0 2019 -10 7
-17 29 -31 95 -3 15 -8 27 -12 27 -4 0 -19 26 -34 58 -29 60 -44 80 -125 166
-65 69 -197 156 -237 156 -8 0 -15 5 -15 10 0 6 -11 10 -24 10 -14 0 -27 4
-30 9 -3 5 -23 12 -43 16 -54 11 -1948 15 -2008 4z m1860 -24 c98 -6 164 -16
170 -26 4 -5 18 -9 32 -9 15 0 34 -6 42 -14 9 -8 23 -16 31 -18 8 -2 36 -18
61 -35 26 -18 50 -33 53 -33 14 0 65 -44 60 -52 -3 -4 1 -8 10 -8 17 0 78 -79
70 -92 -3 -5 0 -7 8 -6 7 2 12 -3 10 -10 -1 -6 2 -11 7 -10 15 5 77 -125 75
-155 -2 -22 1 -27 12 -23 7 3 14 0 15 -7 0 -7 3 -25 6 -42 3 -16 7 -464 9
-995 3 -814 2 -972 -10 -1012 -8 -25 -12 -49 -9 -52 4 -3 1 -6 -5 -6 -7 0 -12
-9 -12 -21 0 -11 -4 -17 -10 -14 -6 4 -10 -8 -10 -29 0 -20 -4 -36 -8 -36 -5
0 -15 -12 -23 -27 -31 -62 -42 -75 -51 -61 -6 9 -7 6 -3 -9 4 -17 -2 -28 -30
-50 -19 -15 -35 -34 -35 -42 0 -8 -6 -11 -16 -7 -8 3 -12 2 -9 -4 3 -6 -1 -10
-9 -10 -8 0 -17 -8 -20 -18 -3 -9 -20 -23 -38 -31 -18 -8 -35 -17 -38 -20 -13
-16 -61 -41 -79 -41 -11 0 -24 -6 -28 -14 -4 -7 -24 -16 -43 -19 -19 -3 -66
-10 -105 -16 -86 -13 -1809 -15 -1906 -2 -36 5 -76 14 -88 20 -12 7 -27 11
-34 8 -6 -2 -20 6 -30 17 -10 12 -16 15 -12 9 3 -7 1 -13 -4 -13 -6 0 -11 4
-11 8 0 5 -30 24 -68 43 -73 37 -92 51 -92 69 0 7 -8 9 -20 5 -16 -5 -20 -2
-20 14 0 11 -9 25 -20 31 -11 6 -20 16 -20 23 0 7 -11 24 -25 39 -14 15 -35
46 -47 70 -11 24 -28 51 -36 60 -8 9 -11 21 -8 27 4 5 2 12 -3 15 -5 4 -16 37
-25 74 -13 58 -16 202 -17 1002 -2 514 0 944 4 955 3 11 8 40 11 65 3 25 15
63 25 84 11 21 17 44 14 52 -3 8 2 17 11 20 9 3 16 11 16 16 0 17 79 120 110
143 16 12 27 25 24 28 -3 3 7 14 23 24 34 22 49 33 74 56 11 10 24 15 29 12 4
-3 10 -2 12 3 5 13 78 52 96 52 10 0 28 7 40 16 13 9 29 13 37 10 7 -2 15 0
18 7 3 9 208 13 853 15 467 2 854 5 859 7 6 3 28 2 50 -1 22 -3 67 -7 100 -9z"/>
<path d="M4030 4303 c-50 -5 -110 -25 -104 -34 3 -5 -4 -9 -15 -9 -12 0 -21
-7 -21 -15 0 -8 -3 -14 -7 -14 -24 4 -43 -2 -37 -12 3 -6 3 -14 -2 -18 -25
-17 -63 -110 -65 -157 -3 -58 25 -145 58 -181 13 -13 23 -32 23 -41 0 -13 2
-14 9 -4 6 11 13 8 29 -12 11 -14 30 -26 42 -26 11 0 19 -4 16 -9 -3 -5 8 -11
25 -15 37 -7 180 -7 162 1 -20 7 -15 23 6 23 10 0 24 7 31 15 7 9 18 14 25 11
6 -2 26 18 45 45 21 32 36 45 41 38 4 -7 7 -3 8 12 1 13 5 58 9 99 8 80 -1
145 -22 170 -44 50 -99 100 -111 100 -8 0 -15 5 -15 10 0 6 -3 9 -7 9 -5 -1
-10 0 -13 1 -3 1 -12 3 -21 5 -9 1 -25 5 -35 7 -11 3 -35 3 -54 1z m75 -43 c3
-5 17 -10 31 -10 13 0 24 -4 24 -10 0 -5 5 -10 11 -10 7 0 22 -11 35 -25 13
-14 27 -25 32 -25 5 0 12 -13 15 -29 3 -16 13 -36 22 -44 24 -25 19 -107 -10
-169 -26 -56 -48 -88 -59 -88 -4 0 -16 -9 -28 -20 -12 -11 -30 -20 -39 -20
-10 0 -21 -4 -24 -10 -9 -14 -93 -12 -139 4 -52 18 -100 58 -134 109 -23 36
-27 52 -26 112 0 47 6 81 18 105 26 50 103 120 131 120 13 0 26 4 29 8 7 13
103 14 111 2z"/>
<path d="M3875 4000 c-3 -5 -1 -10 4 -10 6 0 11 5 11 10 0 6 -2 10 -4 10 -3 0
-8 -4 -11 -10z"/>
<path d="M2815 4012 c-27 -8 -58 -14 -67 -14 -10 1 -18 -3 -18 -8 0 -5 -23
-12 -50 -16 -28 -4 -53 -10 -56 -15 -3 -5 -23 -13 -44 -19 -22 -6 -40 -15 -40
-20 0 -6 -9 -10 -20 -10 -11 0 -20 -4 -20 -10 0 -5 -7 -10 -15 -10 -8 0 -15
-4 -15 -9 0 -4 -20 -19 -44 -32 -25 -13 -42 -27 -40 -31 3 -4 -1 -8 -9 -8 -7
0 -23 -11 -35 -25 -12 -14 -29 -25 -37 -25 -8 0 -14 -3 -13 -7 2 -5 -6 -18
-17 -30 -14 -17 -21 -19 -27 -10 -5 8 -8 5 -8 -9 0 -24 -53 -87 -64 -77 -3 3
-6 -1 -6 -11 0 -9 -7 -19 -15 -22 -8 -4 -15 -14 -15 -23 0 -9 -11 -28 -25 -43
-14 -15 -25 -30 -25 -33 0 -3 -8 -25 -19 -48 -45 -102 -61 -141 -66 -161 -2
-12 -12 -52 -21 -91 -19 -82 -22 -407 -4 -413 5 -2 10 -14 10 -26 0 -13 14
-62 30 -109 17 -48 30 -96 30 -108 0 -11 4 -18 9 -14 13 7 30 -26 23 -44 -3
-8 0 -11 7 -7 6 4 11 1 11 -8 0 -9 5 -16 11 -16 5 0 8 -4 5 -9 -8 -13 4 -42
15 -35 5 3 12 -3 16 -13 4 -10 15 -27 25 -37 10 -11 18 -26 18 -33 0 -7 6 -13
13 -13 8 0 20 -11 27 -25 7 -14 16 -23 18 -20 5 5 35 -27 59 -62 9 -13 22 -23
30 -23 8 0 11 -4 8 -10 -3 -5 7 -13 22 -16 15 -4 35 -15 44 -26 9 -10 23 -18
30 -19 8 0 6 -4 -6 -10 -17 -8 -16 -9 8 -6 18 3 27 0 27 -10 0 -8 5 -11 10 -8
6 3 10 1 10 -4 0 -6 7 -11 15 -11 8 0 32 -9 52 -20 21 -11 44 -20 51 -20 8 0
35 -11 61 -24 44 -24 110 -42 141 -39 8 1 17 -2 20 -7 9 -15 288 -14 345 0 28
7 74 14 103 17 28 3 52 9 52 14 0 5 8 9 18 9 9 0 37 12 62 25 25 13 66 34 93
47 26 12 47 26 47 30 0 5 5 6 10 3 12 -7 42 20 33 29 -4 3 3 6 15 6 11 0 25 7
30 16 5 8 16 16 25 18 9 1 20 6 24 11 4 4 2 5 -6 0 -9 -5 -12 -3 -9 6 3 8 14
14 26 13 11 0 18 5 16 11 -3 6 10 19 27 29 22 13 29 23 26 38 -5 17 -2 19 21
13 21 -5 24 -4 15 6 -9 9 -4 20 22 47 19 19 37 43 40 53 4 11 11 17 16 13 5
-3 12 8 15 25 4 17 10 31 14 31 7 0 27 38 28 54 0 5 4 12 9 15 41 30 105 295
107 446 1 84 -8 195 -15 195 -4 0 -10 25 -14 55 -4 36 -10 53 -17 49 -7 -4 -8
-2 -4 5 8 12 -18 90 -42 128 -7 12 -12 23 -11 25 5 5 -54 101 -74 121 -10 10
-16 25 -13 32 3 8 -3 17 -15 20 -10 4 -19 10 -19 14 0 4 -18 26 -40 50 -22 23
-40 49 -40 56 0 7 -11 16 -25 19 -15 4 -30 17 -35 31 -5 14 -16 25 -25 25 -8
0 -15 8 -15 18 0 11 -3 13 -8 5 -5 -8 -13 -6 -29 7 -12 9 -19 20 -16 24 4 3
-1 6 -10 6 -8 0 -23 7 -31 16 -9 8 -20 13 -25 9 -6 -3 -15 4 -21 15 -6 11 -17
20 -25 20 -7 0 -36 11 -63 25 -28 14 -60 25 -71 25 -12 0 -35 7 -51 15 -15 8
-43 17 -62 19 -18 3 -49 9 -70 14 -56 14 -295 10 -353 -6z m367 -35 c138 -28
204 -51 282 -95 23 -13 49 -25 59 -29 9 -3 17 -9 17 -14 0 -5 6 -9 13 -9 7 0
22 -8 33 -17 10 -10 35 -30 54 -44 66 -49 168 -160 199 -216 9 -15 19 -30 22
-33 6 -5 34 -51 57 -96 17 -32 30 -67 42 -109 6 -22 15 -49 20 -60 27 -68 42
-267 29 -395 -9 -83 -34 -186 -51 -205 -4 -5 -8 -16 -8 -25 0 -30 -54 -137
-115 -226 -56 -83 -193 -217 -267 -262 -16 -9 -28 -20 -28 -24 0 -4 -9 -8 -20
-8 -11 0 -20 -3 -20 -8 0 -4 -15 -13 -32 -21 -18 -7 -46 -19 -63 -26 -97 -43
-159 -59 -292 -75 -129 -16 -333 5 -405 41 -10 5 -27 9 -38 9 -11 0 -20 5 -20
10 0 6 -9 10 -19 10 -21 0 -144 59 -149 72 -2 4 -10 8 -17 8 -7 0 -15 3 -17 8
-1 4 -26 24 -53 44 -83 60 -245 240 -245 272 0 8 -4 18 -10 21 -25 16 -120
254 -120 302 0 10 -5 24 -10 29 -15 15 -7 325 9 384 7 25 15 60 18 78 3 18 9
35 14 38 5 3 9 12 9 19 0 16 49 127 59 135 3 3 17 26 30 53 13 26 28 47 32 47
4 0 11 9 14 21 8 24 168 189 184 189 6 0 11 4 11 9 0 8 163 111 175 111 2 0
28 11 57 24 64 30 155 55 223 62 28 3 54 9 58 14 14 13 196 4 279 -13z"/>
<path d="M2905 3624 c-33 -7 -73 -16 -90 -20 -16 -4 -64 -25 -106 -46 -86 -43
-201 -149 -246 -226 -15 -26 -31 -49 -35 -50 -5 -2 -6 -7 -3 -12 3 -4 -2 -13
-10 -20 -8 -7 -15 -23 -15 -36 0 -12 -4 -26 -10 -29 -5 -3 -10 -22 -10 -41 0
-21 -4 -33 -10 -29 -6 4 -10 -42 -10 -129 0 -75 4 -136 9 -136 8 0 15 -22 28
-97 3 -18 9 -33 14 -33 5 0 9 -4 9 -9 0 -48 180 -261 220 -261 5 0 10 -4 10
-9 0 -5 8 -12 18 -15 9 -4 33 -15 52 -26 19 -10 64 -29 100 -41 88 -29 287
-31 370 -4 74 25 154 68 218 118 57 44 142 137 142 156 0 6 5 11 10 11 6 0 10
6 10 13 0 7 5 18 11 24 15 15 47 102 64 178 42 177 -8 379 -132 536 -25 32
-116 119 -125 119 -3 0 -13 6 -20 13 -23 23 -89 57 -109 57 -10 0 -19 5 -19
10 0 6 -13 10 -28 10 -16 0 -32 3 -36 7 -10 10 -132 32 -176 31 -19 0 -62 -6
-95 -14z m245 -44 c10 -6 30 -11 44 -12 15 -1 26 -6 26 -10 0 -4 14 -8 30 -8
17 0 30 -4 30 -9 0 -5 19 -19 42 -31 22 -12 50 -32 60 -46 11 -13 26 -24 34
-24 8 0 14 -4 14 -10 0 -5 7 -10 15 -10 8 0 14 -3 13 -8 -2 -4 12 -24 30 -44
19 -20 34 -40 34 -45 1 -4 11 -24 23 -43 30 -49 56 -119 57 -152 1 -16 5 -31
9 -34 5 -2 4 -15 -1 -29 -6 -17 -5 -25 5 -29 15 -6 13 -98 -4 -155 -6 -19 -8
-38 -5 -42 3 -5 -7 -33 -21 -64 -14 -31 -25 -60 -25 -65 0 -6 -8 -10 -17 -11
-11 0 -13 -3 -6 -6 40 -16 -175 -243 -230 -243 -11 0 -21 -8 -24 -18 -3 -14
-11 -18 -28 -15 -12 3 -26 0 -29 -6 -4 -6 -15 -11 -24 -11 -9 0 -29 -6 -44
-14 -30 -16 -278 -20 -278 -5 0 5 -11 9 -24 9 -31 0 -85 19 -117 41 -14 10
-28 16 -31 13 -3 -2 -11 2 -18 11 -7 8 -18 15 -24 15 -12 0 -41 30 -64 65 -12
18 -13 18 -7 1 5 -16 3 -17 -10 -6 -8 7 -15 19 -15 28 0 8 -3 12 -6 9 -10 -10
-63 65 -57 80 3 8 2 13 -3 12 -26 -5 -35 2 -29 22 5 15 4 19 -4 15 -7 -4 -11
1 -11 13 0 13 -7 21 -16 21 -14 0 -14 3 -4 15 7 8 8 15 3 15 -11 0 -30 56 -39
115 -16 110 7 323 36 333 6 2 10 10 10 18 0 17 29 64 49 80 8 6 11 15 8 21
-15 23 187 203 229 203 7 0 14 4 14 8 0 8 34 21 110 41 48 13 267 13 290 1z"/>
<path d="M2615 3590 c3 -5 8 -10 11 -10 2 0 4 5 4 10 0 6 -5 10 -11 10 -5 0
-7 -4 -4 -10z"/>
<path d="M3365 3590 c3 -5 8 -10 11 -10 2 0 4 5 4 10 0 6 -5 10 -11 10 -5 0
-7 -4 -4 -10z"/>
<path d="M3930 2749 c0 -5 5 -7 10 -4 6 3 10 8 10 11 0 2 -4 4 -10 4 -5 0 -10
-5 -10 -11z"/>
<path d="M3475 2460 c-3 -5 -1 -10 4 -10 6 0 11 5 11 10 0 6 -2 10 -4 10 -3 0
-8 -4 -11 -10z"/>
<path d="M3740 2360 c0 -5 5 -10 11 -10 5 0 7 5 4 10 -3 6 -8 10 -11 10 -2 0
-4 -4 -4 -10z"/>
<path d="M2380 2276 c0 -9 5 -16 10 -16 6 0 10 4 10 9 0 6 -4 13 -10 16 -5 3
-10 -1 -10 -9z"/>
<path d="M4291 3854 c0 -11 3 -14 6 -6 3 7 2 16 -1 19 -3 4 -6 -2 -5 -13z"/>
<path d="M3820 2289 c0 -5 5 -7 10 -4 6 3 10 8 10 11 0 2 -4 4 -10 4 -5 0 -10
-5 -10 -11z"/>
<path d="M1325 1580 c-3 -5 1 -10 10 -10 9 0 13 5 10 10 -3 6 -8 10 -10 10 -2
0 -7 -4 -10 -10z"/>
<path d="M4370 1535 c-11 -13 -10 -14 4 -9 9 3 16 10 16 15 0 13 -6 11 -20 -6z"/>
<path d="M4437 1333 c-4 -3 -7 -11 -7 -17 0 -6 5 -5 12 2 6 6 9 14 7 17 -3 3
-9 2 -12 -2z"/>
<path d="M5460 315 c-14 -8 -20 -14 -14 -15 5 0 19 7 30 15 24 18 16 19 -16 0z"/>
<path d="M1418 73 c7 -3 16 -2 19 1 4 3 -2 6 -13 5 -11 0 -14 -3 -6 -6z"/>
</g>
</svg>
