<?xml version="1.0" standalone="no"?>
<!DOCTYPE svg PUBLIC "-//W3C//DTD SVG 20010904//EN"
 "http://www.w3.org/TR/2001/REC-SVG-20010904/DTD/svg10.dtd">
<svg version="1.0" xmlns="http://www.w3.org/2000/svg"
 width="600.000000pt" height="716.000000pt" viewBox="0 0 600.000000 716.000000"
 preserveAspectRatio="xMidYMid meet">
<g transform="translate(0.000000,716.000000) scale(0.100000,-0.100000)"
fill="#000000" stroke="none">
<path d="M2880 7133 c-47 -7 -89 -18 -94 -23 -6 -6 -18 -10 -28 -10 -10 0 -18
-4 -18 -10 0 -5 -6 -10 -14 -10 -30 0 -113 -53 -171 -108 -68 -64 -132 -155
-141 -201 -12 -61 -20 -63 -265 -66 -122 -2 -225 -8 -228 -12 -3 -5 -27 -15
-53 -22 -35 -10 -55 -23 -75 -50 -15 -20 -31 -39 -36 -42 -13 -9 -28 -261 -27
-449 0 -91 1 -185 0 -210 0 -29 3 -40 8 -32 6 10 11 1 16 -27 3 -23 11 -41 16
-41 5 0 13 -12 16 -27 4 -15 12 -33 18 -40 6 -6 24 -29 40 -51 15 -22 40 -46
55 -53 14 -8 28 -17 31 -21 3 -4 32 -20 65 -36 l60 -30 270 -4 c241 -3 442 -2
938 2 81 0 152 -2 158 -6 14 -8 419 -7 470 1 21 4 61 18 89 31 27 13 53 24 56
24 3 0 18 13 34 28 15 16 47 44 70 63 41 34 81 103 96 170 10 41 9 301 -1 380
-6 41 -4 63 8 85 12 23 13 44 6 104 -4 41 -11 86 -14 100 -10 40 -58 104 -90
119 -36 18 -104 31 -122 24 -23 -9 -3 -23 33 -23 35 0 90 -24 115 -51 41 -41
43 -65 44 -369 1 -162 -3 -320 -8 -350 -19 -122 -116 -223 -277 -288 -50 -20
-1795 -22 -1867 -1 -88 24 -171 78 -213 139 -13 19 -27 37 -31 40 -3 3 -17 32
-29 65 -23 58 -24 68 -23 375 l0 316 27 41 c58 88 116 103 390 103 160 0 206
3 215 14 6 7 29 49 50 93 43 87 125 184 198 233 24 17 46 30 49 30 2 0 28 11
56 25 119 57 342 62 463 9 17 -7 52 -22 78 -33 27 -12 54 -26 62 -33 7 -7 35
-31 61 -53 48 -41 119 -142 144 -205 7 -19 22 -45 33 -57 19 -21 28 -22 212
-25 151 -2 191 0 188 10 -4 8 -29 12 -77 13 -138 1 -286 8 -296 14 -6 3 -20
27 -31 53 -57 125 -179 258 -272 297 -23 9 -58 25 -77 35 -78 39 -239 54 -360
33z"/>
<path d="M3200 7056 c0 -2 7 -7 16 -10 8 -3 12 -2 9 4 -6 10 -25 14 -25 6z"/>
<path d="M2938 6913 c7 -3 16 -2 19 1 4 3 -2 6 -13 5 -11 0 -14 -3 -6 -6z"/>
<path d="M2884 6856 c-44 -14 -118 -61 -145 -92 -17 -20 -38 -59 -59 -109 -7
-16 -18 -41 -23 -55 -21 -47 -75 -106 -118 -127 -77 -38 -110 -42 -314 -45
l-200 -3 -3 -226 c-3 -259 1 -278 69 -325 l42 -29 847 -3 c923 -2 892 -4 942
53 41 48 48 88 48 307 0 155 -3 209 -12 215 -7 4 -98 9 -203 11 -104 2 -206 8
-225 14 -33 10 -86 41 -120 70 -29 24 -110 156 -110 179 0 5 -11 27 -25 50
-30 47 -111 101 -177 117 -61 15 -162 14 -214 -2z m214 -26 c50 -12 94 -38 86
-51 -3 -5 1 -6 9 -4 23 9 38 -13 144 -217 20 -38 101 -108 153 -131 39 -18 74
-21 248 -26 l204 -6 1 -155 c1 -185 -10 -299 -29 -320 -13 -13 -16 -13 -25 0
-8 12 -9 11 -5 -6 5 -15 0 -24 -19 -32 -18 -9 -255 -12 -879 -11 l-854 0 -35
33 c-34 32 -36 37 -42 122 -4 49 -8 153 -9 232 l-3 142 178 0 c187 0 251 10
325 49 57 30 100 73 130 131 14 27 30 50 35 50 5 0 9 14 9 30 0 35 37 97 63
106 10 3 29 16 44 30 14 13 42 26 62 30 20 3 48 9 63 12 35 9 91 6 146 -8z"/>
<path d="M3140 6780 c0 -5 7 -10 15 -10 8 0 15 5 15 10 0 6 -7 10 -15 10 -8 0
-15 -4 -15 -10z"/>
<path d="M2988 6753 c6 -2 18 -2 25 0 6 3 1 5 -13 5 -14 0 -19 -2 -12 -5z"/>
<path d="M2980 6730 c-8 -5 -23 -11 -32 -14 -10 -3 -29 -28 -42 -56 -23 -47
-24 -53 -11 -85 16 -36 64 -76 92 -76 60 -1 117 29 130 69 14 43 8 106 -12
127 -27 27 -101 48 -125 35z m96 -56 c40 -42 41 -76 5 -116 -28 -32 -82 -45
-117 -29 -30 13 -58 74 -48 104 24 78 106 99 160 41z"/>
<path d="M3850 5914 c0 -8 5 -12 10 -9 6 4 8 11 5 16 -9 14 -15 11 -15 -7z"/>
<path d="M2114 5911 c10 -16 46 -20 46 -5 0 8 -10 14 -26 14 -14 0 -23 -4 -20
-9z"/>
<path d="M1902 6625 c-17 -20 5 -20 24 0 12 11 12 15 2 15 -7 -1 -19 -7 -26
-15z"/>
<path d="M4030 6636 c0 -2 13 -6 29 -8 17 -2 28 -1 25 4 -5 8 -54 12 -54 4z"/>
<path d="M4546 6545 c-4 -11 -13 -14 -25 -10 -21 6 -60 -11 -74 -32 -4 -7 -14
-13 -21 -13 -8 0 -18 -23 -26 -58 l-12 -59 39 -64 38 -64 80 -7 c103 -10 85
-9 270 -4 189 6 292 -5 395 -40 127 -44 202 -110 259 -225 18 -37 35 -86 38
-110 2 -24 9 -54 15 -66 7 -14 8 -49 3 -95 -4 -40 -8 -134 -9 -208 -1 -74 -6
-150 -10 -167 -4 -18 -4 -38 1 -45 14 -22 17 -295 12 -1123 -3 -579 -1 -1524
6 -2561 l4 -701 -23 -57 c-13 -31 -33 -68 -45 -82 -11 -13 -21 -29 -21 -34 0
-12 -44 -64 -79 -94 -14 -12 -38 -34 -55 -50 -75 -69 -160 -98 -336 -115 -60
-6 -373 -10 -735 -10 -1723 2 -2395 -1 -2395 -11 0 -12 3165 -7 3240 4 25 4
54 11 65 15 11 5 40 17 65 27 119 47 272 204 311 319 7 22 17 44 21 50 13 15
10 4962 -3 5004 -7 20 -15 45 -19 56 -34 99 -127 215 -213 264 -29 16 -87 41
-131 55 -77 25 -84 26 -365 26 -253 0 -290 2 -320 18 -47 24 -74 75 -67 129 6
45 24 83 40 83 5 0 17 7 26 15 13 12 60 15 263 15 136 1 252 -2 257 -5 6 -4
34 -9 63 -11 190 -18 368 -98 500 -228 116 -114 138 -149 190 -299 l32 -92 3
-2445 c1 -1453 -1 -2486 -7 -2546 -19 -213 -147 -420 -341 -555 -76 -53 -219
-117 -305 -135 -48 -11 -466 -13 -2135 -14 -2228 0 -2155 -2 -2274 49 -26 12
-53 21 -59 21 -23 0 -179 112 -236 169 -64 64 -128 153 -155 216 -10 22 -22
48 -27 57 -5 10 -9 25 -9 33 0 8 -4 15 -8 15 -28 0 -30 187 -31 2586 0 1504 3
2483 9 2535 5 46 14 85 20 87 5 2 10 12 10 23 0 11 4 27 9 37 5 9 18 37 29 62
23 51 96 152 152 209 89 90 216 156 390 203 65 18 113 21 363 25 l288 5 39
-27 c41 -28 50 -48 50 -110 0 -46 -38 -97 -84 -115 -16 -6 -139 -10 -307 -10
-153 0 -279 -4 -279 -9 0 -4 -20 -11 -45 -14 -24 -4 -53 -11 -62 -16 -10 -5
-43 -21 -73 -36 -62 -31 -137 -99 -181 -163 -16 -24 -29 -45 -29 -48 0 -4 -6
-20 -14 -37 -42 -99 -41 5 -41 -2588 0 -1811 3 -2470 11 -2480 10 -13 22 -57
27 -101 1 -9 5 -14 9 -12 4 3 8 0 8 -6 0 -27 85 -132 145 -180 94 -73 153
-101 278 -129 62 -14 827 -15 827 -1 0 6 -85 10 -232 11 -128 0 -255 4 -283 9
-32 5 -73 5 -113 -2 -80 -15 -214 2 -314 39 -40 15 -75 29 -78 32 -3 3 -18 13
-34 21 -32 16 -106 86 -106 99 0 4 -11 21 -25 37 -14 16 -25 33 -25 38 0 5 -9
17 -21 27 -16 14 -23 38 -32 106 -7 62 -10 795 -10 2507 1 2508 1 2491 40
2566 7 14 13 30 13 36 0 7 13 22 30 35 16 13 30 30 30 37 0 23 39 71 83 101
48 32 169 72 237 77 25 2 86 8 135 13 50 5 165 10 258 10 160 1 169 2 207 26
60 38 87 112 65 176 -16 44 -35 67 -73 86 -31 16 -612 19 -612 3 0 -5 -12 -10
-27 -10 -88 0 -239 -58 -352 -134 -29 -20 -55 -36 -57 -36 -8 0 -88 -88 -111
-122 -14 -21 -29 -38 -33 -38 -12 0 -55 -79 -70 -125 -7 -22 -19 -51 -27 -64
-8 -13 -20 -49 -26 -80 -15 -80 -22 -4968 -7 -5071 6 -41 19 -95 30 -120 44
-103 50 -116 62 -135 7 -11 28 -44 46 -73 18 -30 65 -85 104 -123 39 -38 65
-69 59 -69 -6 0 -11 -4 -11 -9 0 -5 9 -7 20 -4 10 3 32 -4 49 -16 16 -12 34
-21 40 -21 6 0 11 -4 11 -8 0 -16 160 -78 254 -98 58 -13 160 -15 566 -15 724
1 2038 1 2880 1 757 -1 852 3 934 39 23 10 70 31 106 46 89 39 162 89 234 161
67 67 116 123 116 132 0 3 11 19 24 36 12 17 29 48 37 68 7 21 17 38 21 38 4
0 8 10 8 23 0 13 5 28 10 33 6 6 14 44 17 85 3 41 9 79 14 85 13 17 5 4951 -8
4999 -7 22 -16 58 -22 80 -32 129 -146 283 -283 383 -56 42 -188 108 -258 130
-42 13 -130 27 -148 23 -7 -1 -28 2 -45 8 -18 5 -133 11 -257 13 -124 1 -230
6 -236 10 -7 5 -14 2 -18 -7z"/>
<path d="M4161 6504 c0 -11 3 -14 6 -6 3 7 2 16 -1 19 -3 4 -6 -2 -5 -13z"/>
<path d="M1228 6483 c7 -3 16 -2 19 1 4 3 -2 6 -13 5 -11 0 -14 -3 -6 -6z"/>
<path d="M4808 6483 c6 -2 18 -2 25 0 6 3 1 5 -13 5 -14 0 -19 -2 -12 -5z"/>
<path d="M4181 6424 c0 -11 3 -14 6 -6 3 7 2 16 -1 19 -3 4 -6 -2 -5 -13z"/>
<path d="M1530 6395 c0 -8 2 -15 4 -15 2 0 6 7 10 15 3 8 1 15 -4 15 -6 0 -10
-7 -10 -15z"/>
<path d="M4181 6344 c0 -11 3 -14 6 -6 3 7 2 16 -1 19 -3 4 -6 -2 -5 -13z"/>
<path d="M1465 6310 c-3 -5 -2 -10 4 -10 5 0 13 5 16 10 3 6 2 10 -4 10 -5 0
-13 -4 -16 -10z"/>
<path d="M4515 6310 c-3 -5 -1 -10 4 -10 6 0 11 5 11 10 0 6 -2 10 -4 10 -3 0
-8 -4 -11 -10z"/>
<path d="M4183 6255 c0 -33 2 -45 4 -27 2 18 2 45 0 60 -2 15 -4 0 -4 -33z"/>
<path d="M5310 6226 c0 -2 8 -10 18 -17 15 -13 16 -12 3 4 -13 16 -21 21 -21
13z"/>
<path d="M355 6120 c-3 -6 1 -7 9 -4 18 7 21 14 7 14 -6 0 -13 -4 -16 -10z"/>
<path d="M4182 6105 c0 -16 2 -22 5 -12 2 9 2 23 0 30 -3 6 -5 -1 -5 -18z"/>
<path d="M5470 6080 c0 -5 5 -10 11 -10 5 0 7 5 4 10 -3 6 -8 10 -11 10 -2 0
-4 -4 -4 -10z"/>
<path d="M4183 5995 c0 -27 2 -38 4 -22 2 15 2 37 0 50 -2 12 -4 0 -4 -28z"/>
<path d="M481 6014 c0 -11 3 -14 6 -6 3 7 2 16 -1 19 -3 4 -6 -2 -5 -13z"/>
<path d="M4161 5914 c0 -11 3 -14 6 -6 3 7 2 16 -1 19 -3 4 -6 -2 -5 -13z"/>
<path d="M423 5905 c-3 -9 -3 -18 -1 -21 3 -3 8 4 11 16 6 23 -1 27 -10 5z"/>
<path d="M261 5874 c0 -11 3 -14 6 -6 3 7 2 16 -1 19 -3 4 -6 -2 -5 -13z"/>
<path d="M408 5693 c4 -211 8 -231 10 -55 1 94 -1 172 -5 172 -5 0 -7 -53 -5
-117z"/>
<path d="M2328 5803 c6 -2 18 -2 25 0 6 3 1 5 -13 5 -14 0 -19 -2 -12 -5z"/>
<path d="M2498 5803 c12 -2 32 -2 45 0 12 2 2 4 -23 4 -25 0 -35 -2 -22 -4z"/>
<path d="M3458 5803 c12 -2 30 -2 40 0 9 3 -1 5 -23 4 -22 0 -30 -2 -17 -4z"/>
<path d="M3623 5803 c15 -2 37 -2 50 0 12 2 0 4 -28 4 -27 0 -38 -2 -22 -4z"/>
<path d="M3793 5803 c9 -2 25 -2 35 0 9 3 1 5 -18 5 -19 0 -27 -2 -17 -5z"/>
<path d="M5592 5665 c0 -16 2 -22 5 -12 2 9 2 23 0 30 -3 6 -5 -1 -5 -18z"/>
<path d="M3258 5623 c7 -3 16 -2 19 1 4 3 -2 6 -13 5 -11 0 -14 -3 -6 -6z"/>
<path d="M241 5594 c0 -11 3 -14 6 -6 3 7 2 16 -1 19 -3 4 -6 -2 -5 -13z"/>
<path d="M5587 5549 c4 -13 8 -18 11 -10 2 7 -1 18 -6 23 -8 8 -9 4 -5 -13z"/>
<path d="M5586 5435 c-3 -8 -1 -15 4 -15 6 0 10 7 10 15 0 8 -2 15 -4 15 -2 0
-6 -7 -10 -15z"/>
<path d="M5592 5375 c0 -16 2 -22 5 -12 2 9 2 23 0 30 -3 6 -5 -1 -5 -18z"/>
<path d="M5588 5270 c-2 -22 0 -40 4 -40 5 0 8 18 8 40 0 22 -2 40 -4 40 -2 0
-6 -18 -8 -40z"/>
<path d="M5580 5131 c0 -6 5 -13 10 -16 6 -3 10 1 10 9 0 9 -4 16 -10 16 -5 0
-10 -4 -10 -9z"/>
<path d="M400 5113 c0 -5 5 -15 10 -23 8 -12 10 -11 10 8 0 12 -4 22 -10 22
-5 0 -10 -3 -10 -7z"/>
<path d="M5580 5090 c0 -5 5 -10 10 -10 6 0 10 5 10 10 0 6 -4 10 -10 10 -5 0
-10 -4 -10 -10z"/>
<path d="M5591 4995 c-8 -33 -7 -55 1 -47 6 6 8 20 5 33 -2 13 -5 20 -6 14z"/>
<path d="M411 4964 c0 -11 3 -14 6 -6 3 7 2 16 -1 19 -3 4 -6 -2 -5 -13z"/>
<path d="M2255 4943 c-32 -8 -106 -67 -165 -130 -97 -104 -465 -477 -499 -506
-35 -28 -54 -30 -31 -2 11 13 10 14 -4 9 -16 -6 -86 33 -86 48 0 10 -101 108
-111 108 -5 0 -9 7 -9 15 0 8 -4 15 -9 15 -5 0 -18 15 -29 34 -20 33 -22 34
-61 25 -49 -11 -91 -8 -91 6 0 5 -6 1 -12 -10 -6 -11 -14 -22 -17 -25 -16 -13
-87 -116 -86 -125 3 -40 63 -106 270 -300 65 -60 125 -117 134 -126 24 -23 78
-59 82 -54 2 2 26 6 53 9 56 7 106 26 106 41 0 5 149 159 331 340 317 316 357
360 345 372 -3 3 -157 -147 -343 -333 -186 -187 -353 -351 -372 -366 -36 -30
-95 -37 -144 -19 -14 5 -73 57 -132 115 -59 58 -109 106 -112 106 -15 0 -163
160 -169 183 -17 71 46 151 118 149 56 -3 69 -12 201 -139 65 -62 122 -113
127 -113 6 0 10 -7 10 -15 0 -8 4 -15 8 -15 4 0 152 146 327 325 176 179 335
332 354 341 63 30 124 4 162 -69 11 -21 24 -35 29 -32 20 12 8 38 -41 91 -53
55 -72 62 -134 47z"/>
<path d="M413 4865 c0 -33 2 -45 4 -27 2 18 2 45 0 60 -2 15 -4 0 -4 -33z"/>
<path d="M5580 4836 c0 -22 3 -27 11 -19 8 8 8 16 0 30 -9 16 -10 14 -11 -11z"/>
<path d="M2361 4775 c-7 -25 -17 -45 -22 -45 -5 0 -9 -5 -9 -12 0 -19 38 21
48 52 6 15 7 32 3 38 -4 6 -13 -9 -20 -33z"/>
<path d="M408 4777 c-3 -19 -2 -25 4 -19 6 6 8 18 6 28 -3 14 -5 12 -10 -9z"/>
<path d="M402 4705 c0 -11 3 -29 8 -40 11 -25 11 1 0 35 -6 20 -8 21 -8 5z"/>
<path d="M5592 4700 c0 -14 2 -19 5 -12 2 6 2 18 0 25 -3 6 -5 1 -5 -13z"/>
<path d="M5586 4662 c-3 -5 -1 -22 4 -38 8 -29 8 -29 9 9 1 36 -3 45 -13 29z"/>
<path d="M4737 4624 c-3 -4 -983 -12 -1612 -14 l-320 -1 -19 -42 c-11 -23 -26
-55 -33 -72 -9 -20 -12 -46 -7 -82 6 -51 7 -52 59 -77 l53 -25 945 -2 c740 -2
944 -5 940 -15 -10 -26 81 5 108 36 14 17 30 30 36 30 6 0 14 11 17 25 4 14
10 24 14 21 4 -2 8 28 9 68 1 48 -2 65 -8 51 -6 -13 -7 -4 -3 28 4 26 2 48 -2
48 -5 1 -25 3 -44 5 -19 1 -56 7 -82 12 -26 5 -49 8 -51 6z m114 -61 c29 -29
50 -110 35 -138 -21 -40 -51 -71 -81 -83 -38 -15 -1925 -9 -1965 6 -46 18 -65
49 -64 106 0 56 24 108 58 125 14 6 356 9 1008 8 l987 -2 22 -22z"/>
<path d="M2878 4543 c18 -2 45 -2 60 0 15 2 0 4 -33 4 -33 0 -45 -2 -27 -4z"/>
<path d="M3068 4543 c6 -2 18 -2 25 0 6 3 1 5 -13 5 -14 0 -19 -2 -12 -5z"/>
<path d="M3163 4543 c9 -2 23 -2 30 0 6 3 -1 5 -18 5 -16 0 -22 -2 -12 -5z"/>
<path d="M3233 4543 c9 -2 25 -2 35 0 9 3 1 5 -18 5 -19 0 -27 -2 -17 -5z"/>
<path d="M3333 4543 c15 -2 37 -2 50 0 12 2 0 4 -28 4 -27 0 -38 -2 -22 -4z"/>
<path d="M3468 4543 c12 -2 30 -2 40 0 9 3 -1 5 -23 4 -22 0 -30 -2 -17 -4z"/>
<path d="M3738 4543 c7 -3 16 -2 19 1 4 3 -2 6 -13 5 -11 0 -14 -3 -6 -6z"/>
<path d="M3778 4543 c7 -3 16 -2 19 1 4 3 -2 6 -13 5 -11 0 -14 -3 -6 -6z"/>
<path d="M3928 4543 c6 -2 18 -2 25 0 6 3 1 5 -13 5 -14 0 -19 -2 -12 -5z"/>
<path d="M4033 4543 c9 -2 25 -2 35 0 9 3 1 5 -18 5 -19 0 -27 -2 -17 -5z"/>
<path d="M4168 4543 c6 -2 18 -2 25 0 6 3 1 5 -13 5 -14 0 -19 -2 -12 -5z"/>
<path d="M4418 4543 c12 -2 32 -2 45 0 12 2 2 4 -23 4 -25 0 -35 -2 -22 -4z"/>
<path d="M4528 4543 c23 -2 59 -2 80 0 20 2 1 4 -43 4 -44 0 -61 -2 -37 -4z"/>
<path d="M4693 4543 c9 -2 23 -2 30 0 6 3 -1 5 -18 5 -16 0 -22 -2 -12 -5z"/>
<path d="M4792 4536 c7 -8 15 -12 17 -11 5 6 -10 25 -20 25 -5 0 -4 -6 3 -14z"/>
<path d="M3150 4380 c0 -5 4 -10 9 -10 6 0 13 5 16 10 3 6 -1 10 -9 10 -9 0
-16 -4 -16 -10z"/>
<path d="M413 4545 c0 -33 2 -45 4 -27 2 18 2 45 0 60 -2 15 -4 0 -4 -33z"/>
<path d="M5585 4546 c0 -37 15 -44 15 -8 0 18 -4 32 -8 32 -4 0 -8 -11 -7 -24z"/>
<path d="M411 4464 c0 -11 3 -14 6 -6 3 7 2 16 -1 19 -3 4 -6 -2 -5 -13z"/>
<path d="M413 4395 c0 -27 2 -38 4 -22 2 15 2 37 0 50 -2 12 -4 0 -4 -28z"/>
<path d="M5756 4424 c-4 -9 -4 -19 -1 -22 2 -3 7 3 11 12 4 9 4 19 1 22 -2 3
-7 -3 -11 -12z"/>
<path d="M5585 4417 c-4 -10 -5 -21 -1 -24 10 -10 18 4 13 24 -4 17 -4 17 -12
0z"/>
<path d="M5581 4268 c1 -7 5 -24 9 -38 7 -22 8 -21 9 13 1 20 -3 37 -9 37 -5
0 -10 -6 -9 -12z"/>
<path d="M5580 4121 c0 -25 6 -27 13 -6 4 8 2 17 -3 20 -6 4 -10 -3 -10 -14z"/>
<path d="M413 4070 c0 -30 2 -43 4 -27 2 15 2 39 0 55 -2 15 -4 2 -4 -28z"/>
<path d="M1400 4110 c0 -5 5 -10 11 -10 5 0 7 5 4 10 -3 6 -8 10 -11 10 -2 0
-4 -4 -4 -10z"/>
<path d="M5581 4003 c0 -15 4 -37 9 -48 7 -16 9 -11 9 22 1 23 -3 45 -9 48 -6
4 -10 -6 -9 -22z"/>
<path d="M1595 4010 c3 -5 8 -10 11 -10 2 0 4 5 4 10 0 6 -5 10 -11 10 -5 0
-7 -4 -4 -10z"/>
<path d="M412 3985 c0 -16 2 -22 5 -12 2 9 2 23 0 30 -3 6 -5 -1 -5 -18z"/>
<path d="M242 3925 c0 -16 2 -22 5 -12 2 9 2 23 0 30 -3 6 -5 -1 -5 -18z"/>
<path d="M407 3865 c7 -49 13 -58 13 -19 0 16 -5 36 -10 44 -6 10 -7 2 -3 -25z"/>
<path d="M5585 3841 c-3 -5 -1 -12 5 -16 5 -3 10 1 10 9 0 18 -6 21 -15 7z"/>
<path d="M5761 3744 c0 -11 3 -14 6 -6 3 7 2 16 -1 19 -3 4 -6 -2 -5 -13z"/>
<path d="M5585 3740 c3 -5 8 -10 11 -10 2 0 4 5 4 10 0 6 -5 10 -11 10 -5 0
-7 -4 -4 -10z"/>
<path d="M401 3704 c0 -11 3 -14 6 -6 3 7 2 16 -1 19 -3 4 -6 -2 -5 -13z"/>
<path d="M5580 3710 c0 -5 5 -10 10 -10 6 0 10 5 10 10 0 6 -4 10 -10 10 -5 0
-10 -4 -10 -10z"/>
<path d="M5588 3593 c-3 -27 -1 -55 3 -63 5 -9 9 10 9 48 0 74 -6 81 -12 15z"/>
<path d="M2165 3504 c-114 -107 -377 -369 -422 -421 -74 -85 -127 -124 -174
-127 -38 -3 -47 2 -114 61 -41 35 -75 67 -77 71 -2 4 -19 22 -39 39 -32 30
-42 33 -116 38 -79 6 -82 5 -100 -21 -10 -14 -27 -36 -38 -47 -21 -23 -21 -32
-3 -76 6 -14 10 -29 10 -34 -5 -21 34 -86 71 -120 23 -21 65 -61 94 -88 28
-27 55 -49 60 -49 5 0 16 -11 23 -25 7 -14 17 -25 22 -25 5 0 19 -9 31 -21 60
-57 108 -82 190 -99 37 -7 41 -5 92 44 212 206 410 393 433 409 15 11 47 44
72 74 50 61 125 138 192 198 82 73 98 140 51 212 -33 52 -58 63 -136 63 -62 0
-63 0 -122 -56z m195 19 c15 -9 38 -34 50 -55 28 -50 17 -85 -46 -151 -26 -27
-42 -52 -38 -59 4 -6 3 -8 -3 -5 -6 4 -107 -88 -224 -204 -412 -406 -453 -442
-513 -455 -23 -4 -96 15 -112 31 -6 5 -47 42 -90 81 -213 193 -250 231 -269
271 -32 66 4 143 74 163 73 20 112 -6 333 -216 l46 -44 304 302 c167 167 319
315 338 330 41 33 106 38 150 11z m-789 -586 c-1 -12 -15 -9 -19 4 -3 6 1 10
8 8 6 -3 11 -8 11 -12z"/>
<path d="M2248 3493 c7 -3 16 -2 19 1 4 3 -2 6 -13 5 -11 0 -14 -3 -6 -6z"/>
<path d="M2372 3410 c0 -14 2 -19 5 -12 2 6 2 18 0 25 -3 6 -5 1 -5 -13z"/>
<path d="M1300 3076 c0 -2 8 -10 18 -17 15 -13 16 -12 3 4 -13 16 -21 21 -21
13z"/>
<path d="M400 3470 c0 -5 5 -10 10 -10 6 0 10 5 10 10 0 6 -4 10 -10 10 -5 0
-10 -4 -10 -10z"/>
<path d="M5588 3423 c-2 -10 -1 -31 3 -48 6 -26 7 -23 8 18 1 48 -3 61 -11 30z"/>
<path d="M410 3353 c-3 -23 -2 -39 3 -34 5 5 7 24 5 42 -3 33 -4 33 -8 -8z"/>
<path d="M5593 3285 c0 -22 2 -30 4 -17 2 12 2 30 0 40 -3 9 -5 -1 -4 -23z"/>
<path d="M2829 3239 c-7 -4 -17 -5 -21 -3 -5 3 -7 2 -6 -3 4 -12 -65 -78 -79
-75 -8 2 -10 -3 -7 -13 3 -8 10 -15 15 -15 5 0 9 -13 9 -29 0 -16 7 -42 15
-57 8 -16 15 -24 15 -19 0 6 9 -9 21 -32 21 -43 70 -85 76 -66 3 7 56 12 143
12 125 2 139 0 143 -16 4 -17 5 -17 6 0 1 14 11 17 66 17 41 0 65 -4 65 -11 0
-7 -9 -9 -23 -6 -12 4 -29 2 -37 -4 -11 -7 -2 -9 30 -7 25 2 44 8 43 13 -1 7
39 11 108 13 84 1 108 -2 102 -11 -5 -9 -4 -9 8 0 12 9 173 13 660 15 396 2
650 7 659 13 8 5 23 8 33 7 9 -2 18 2 18 7 1 6 2 14 4 19 14 50 18 61 27 59 6
-1 13 4 15 11 3 6 0 12 -7 12 -6 0 -8 4 -5 10 3 5 1 19 -5 30 -6 12 -14 39
-18 61 -4 22 -10 40 -15 39 -4 0 -23 7 -43 15 -31 13 -173 15 -1019 19 -541 2
-989 0 -996 -5z m2003 -32 c23 -12 58 -86 58 -123 0 -46 -42 -100 -87 -110
-57 -14 -1891 -18 -1941 -4 -51 13 -81 53 -88 117 -6 54 19 107 59 123 28 11
1975 8 1999 -3z"/>
<path d="M3248 3183 c6 -2 18 -2 25 0 6 3 1 5 -13 5 -14 0 -19 -2 -12 -5z"/>
<path d="M3750 3180 c-9 -6 -10 -10 -3 -10 6 0 15 5 18 10 8 12 4 12 -15 0z"/>
<path d="M3488 3173 c7 -3 16 -2 19 1 4 3 -2 6 -13 5 -11 0 -14 -3 -6 -6z"/>
<path d="M3688 3173 c6 -2 18 -2 25 0 6 3 1 5 -13 5 -14 0 -19 -2 -12 -5z"/>
<path d="M3898 3173 c7 -3 16 -2 19 1 4 3 -2 6 -13 5 -11 0 -14 -3 -6 -6z"/>
<path d="M4788 3173 c6 -2 18 -2 25 0 6 3 1 5 -13 5 -14 0 -19 -2 -12 -5z"/>
<path d="M2816 3045 c4 -8 8 -15 10 -15 2 0 4 7 4 15 0 8 -4 15 -10 15 -5 0
-7 -7 -4 -15z"/>
<path d="M413 3180 c0 -36 2 -50 4 -32 2 17 2 47 0 65 -2 17 -4 3 -4 -33z"/>
<path d="M5589 3208 c0 -7 -2 -29 -4 -48 -2 -18 0 -41 5 -50 6 -10 9 5 10 48
0 34 -2 62 -5 62 -3 0 -5 -6 -6 -12z"/>
<path d="M412 3050 c0 -14 2 -19 5 -12 2 6 2 18 0 25 -3 6 -5 1 -5 -13z"/>
<path d="M411 3004 c0 -11 3 -14 6 -6 3 7 2 16 -1 19 -3 4 -6 -2 -5 -13z"/>
<path d="M412 2930 c0 -19 2 -27 5 -17 2 9 2 25 0 35 -3 9 -5 1 -5 -18z"/>
<path d="M503 2880 c0 -41 2 -58 4 -37 2 20 2 54 0 75 -2 20 -4 3 -4 -38z"/>
<path d="M3180 2920 c-13 -8 -12 -10 3 -10 9 0 17 5 17 10 0 12 -1 12 -20 0z"/>
<path d="M3415 2920 l-30 -8 27 -1 c15 0 30 4 33 9 3 6 5 9 3 9 -2 -1 -16 -5
-33 -9z"/>
<path d="M5754 2905 c-3 -8 -4 -20 -2 -27 3 -7 7 -1 10 15 6 29 1 36 -8 12z"/>
<path d="M408 2865 c-3 -14 -1 -25 3 -25 5 0 9 11 9 25 0 14 -2 25 -4 25 -2 0
-6 -11 -8 -25z"/>
<path d="M5592 2840 c0 -14 2 -19 5 -12 2 6 2 18 0 25 -3 6 -5 1 -5 -13z"/>
<path d="M413 2750 c0 -36 2 -50 4 -32 2 17 2 47 0 65 -2 17 -4 3 -4 -33z"/>
<path d="M504 2695 c0 -55 1 -76 3 -47 2 29 2 74 0 100 -2 26 -3 2 -3 -53z"/>
<path d="M5586 2762 c-7 -12 -4 -72 5 -77 4 -3 7 15 7 40 0 45 -2 52 -12 37z"/>
<path d="M413 2640 c0 -25 2 -35 4 -22 2 12 2 32 0 45 -2 12 -4 2 -4 -23z"/>
<path d="M5761 2644 c0 -11 3 -14 6 -6 3 7 2 16 -1 19 -3 4 -6 -2 -5 -13z"/>
<path d="M5580 2586 c0 -8 5 -18 10 -21 6 -3 10 3 10 14 0 12 -4 21 -10 21 -5
0 -10 -6 -10 -14z"/>
<path d="M411 2574 c0 -11 3 -14 6 -6 3 7 2 16 -1 19 -3 4 -6 -2 -5 -13z"/>
<path d="M412 2510 c0 -19 2 -27 5 -17 2 9 2 25 0 35 -3 9 -5 1 -5 -18z"/>
<path d="M406 2455 c-3 -8 -1 -15 4 -15 6 0 10 7 10 15 0 8 -2 15 -4 15 -2 0
-6 -7 -10 -15z"/>
<path d="M5585 2450 c-3 -5 -1 -18 4 -27 9 -16 10 -14 11 10 0 28 -5 34 -15
17z"/>
<path d="M406 2363 c-6 -14 -5 -15 5 -6 7 7 10 15 7 18 -3 3 -9 -2 -12 -12z"/>
<path d="M5588 2313 c-2 -5 -1 -33 3 -63 l6 -55 1 63 c2 57 -1 74 -10 55z"/>
<path d="M400 2290 c0 -5 5 -10 10 -10 6 0 10 5 10 10 0 6 -4 10 -10 10 -5 0
-10 -4 -10 -10z"/>
<path d="M5591 2174 c0 -11 3 -14 6 -6 3 7 2 16 -1 19 -3 4 -6 -2 -5 -13z"/>
<path d="M2236 2165 c-29 -16 -65 -49 -284 -265 -70 -69 -143 -138 -162 -154
-19 -16 -42 -39 -51 -52 -8 -13 -43 -53 -77 -88 -34 -35 -62 -69 -62 -75 0
-15 -36 -32 -53 -25 -9 3 -18 16 -21 30 -4 13 -10 24 -15 24 -5 0 -49 40 -97
89 -61 60 -107 97 -146 115 l-57 27 -48 -37 c-26 -20 -49 -37 -51 -39 -1 -1
-7 -18 -12 -36 l-10 -34 20 25 c11 14 20 28 20 31 0 4 16 14 35 23 26 13 48
15 82 10 43 -6 57 -17 180 -137 l133 -130 318 320 c175 176 333 330 352 342
85 52 185 -3 192 -105 3 -34 -2 -45 -42 -88 -25 -27 -52 -56 -61 -65 -9 -9
-162 -161 -341 -338 -278 -275 -330 -322 -361 -328 -49 -10 -57 -25 -13 -25
39 0 51 11 391 345 114 112 286 275 290 275 1 0 26 24 56 53 67 64 85 92 100
151 10 39 9 52 -7 91 -16 37 -26 48 -59 60 -63 23 -108 26 -139 10z"/>
<path d="M412 2150 c0 -14 2 -19 5 -12 2 6 2 18 0 25 -3 6 -5 1 -5 -13z"/>
<path d="M5591 2134 c0 -11 3 -14 6 -6 3 7 2 16 -1 19 -3 4 -6 -2 -5 -13z"/>
<path d="M412 2070 c0 -19 2 -27 5 -17 2 9 2 25 0 35 -3 9 -5 1 -5 -18z"/>
<path d="M5592 2080 c0 -14 2 -19 5 -12 2 6 2 18 0 25 -3 6 -5 1 -5 -13z"/>
<path d="M5593 2005 c0 -22 2 -30 4 -17 2 12 2 30 0 40 -3 9 -5 -1 -4 -23z"/>
<path d="M2370 2004 c0 -8 5 -12 10 -9 6 3 10 10 10 16 0 5 -4 9 -10 9 -5 0
-10 -7 -10 -16z"/>
<path d="M413 1905 c0 -33 2 -45 4 -27 2 18 2 45 0 60 -2 15 -4 0 -4 -33z"/>
<path d="M5591 1864 c0 -11 3 -14 6 -6 3 7 2 16 -1 19 -3 4 -6 -2 -5 -13z"/>
<path d="M2806 1834 c-50 -53 -66 -92 -66 -159 0 -42 5 -60 20 -75 12 -12 18
-26 14 -33 -4 -7 -4 -9 1 -5 4 4 14 3 21 -2 20 -18 48 -19 318 -19 814 -1
1456 -6 1483 -13 4 -1 64 2 132 6 122 8 142 15 149 46 2 8 8 17 13 18 5 2 9
10 9 18 0 8 9 34 20 57 17 35 18 44 7 52 -8 6 -18 21 -22 35 -4 14 -16 33 -27
44 -16 15 -17 20 -6 27 10 7 10 9 -2 10 -8 1 -474 3 -1034 3 -750 1 -1022 -2
-1030 -10z m2009 -28 c78 -20 98 -142 33 -206 l-30 -30 -985 0 c-1119 0 -1031
-7 -1058 83 -13 45 -13 52 6 93 12 24 33 50 48 58 22 11 186 13 991 12 531 -2
979 -6 995 -10z"/>
<path d="M3468 1773 c7 -3 16 -2 19 1 4 3 -2 6 -13 5 -11 0 -14 -3 -6 -6z"/>
<path d="M3048 1763 c6 -2 18 -2 25 0 6 3 1 5 -13 5 -14 0 -19 -2 -12 -5z"/>
<path d="M3498 1623 c7 -3 16 -2 19 1 4 3 -2 6 -13 5 -11 0 -14 -3 -6 -6z"/>
<path d="M3228 1613 c12 -2 30 -2 40 0 9 3 -1 5 -23 4 -22 0 -30 -2 -17 -4z"/>
<path d="M4388 1613 c7 -3 16 -2 19 1 4 3 -2 6 -13 5 -11 0 -14 -3 -6 -6z"/>
<path d="M414 1690 c0 -74 1 -105 3 -67 2 37 2 97 0 135 -2 37 -3 6 -3 -68z"/>
<path d="M5750 1766 c0 -8 4 -17 9 -20 5 -4 7 3 4 14 -6 23 -13 26 -13 6z"/>
<path d="M5588 1747 c-3 -13 -1 -32 3 -43 5 -13 8 -7 8 24 1 46 -4 55 -11 19z"/>
<path d="M1139 1668 c-1 -2 -3 -13 -4 -25 -3 -31 12 -29 17 2 3 14 1 25 -3 25
-5 0 -10 -1 -10 -2z"/>
<path d="M5587 1621 c-2 -10 -1 -25 4 -32 6 -10 9 -4 9 19 0 36 -5 42 -13 13z"/>
<path d="M241 1604 c0 -11 3 -14 6 -6 3 7 2 16 -1 19 -3 4 -6 -2 -5 -13z"/>
<path d="M1084 1594 c3 -9 6 -22 6 -30 0 -23 169 -184 194 -184 8 0 20 -8 25
-17 6 -10 11 -13 11 -7 0 11 -5 16 -90 91 -76 67 -109 102 -126 135 -15 30
-30 39 -20 12z"/>
<path d="M1939 1553 c-13 -16 -12 -17 4 -4 16 13 21 21 13 21 -2 0 -10 -8 -17
-17z"/>
<path d="M5592 1535 c0 -16 2 -22 5 -12 2 9 2 23 0 30 -3 6 -5 -1 -5 -18z"/>
<path d="M242 1445 c0 -16 2 -22 5 -12 2 9 2 23 0 30 -3 6 -5 -1 -5 -18z"/>
<path d="M412 1450 c0 -14 2 -19 5 -12 2 6 2 18 0 25 -3 6 -5 1 -5 -13z"/>
<path d="M5591 1454 c0 -11 3 -14 6 -6 3 7 2 16 -1 19 -3 4 -6 -2 -5 -13z"/>
<path d="M1330 1407 c0 -12 61 -68 69 -65 6 1 -8 18 -29 36 -22 18 -40 31 -40
29z"/>
<path d="M413 1350 c0 -30 2 -43 4 -27 2 15 2 39 0 55 -2 15 -4 2 -4 -28z"/>
<path d="M5584 1337 c2 -21 6 -40 10 -44 10 -10 7 50 -3 67 -7 9 -9 2 -7 -23z"/>
<path d="M1361 1314 c0 -11 3 -14 6 -6 3 7 2 16 -1 19 -3 4 -6 -2 -5 -13z"/>
<path d="M1460 1280 c0 -5 5 -10 11 -10 5 0 7 5 4 10 -3 6 -8 10 -11 10 -2 0
-4 -4 -4 -10z"/>
<path d="M1440 1243 c0 -18 54 -53 92 -58 28 -5 26 -2 -22 22 -30 15 -58 32
-62 37 -5 8 -8 7 -8 -1z"/>
<path d="M413 1160 c0 -47 2 -66 4 -42 2 23 2 61 0 85 -2 23 -4 4 -4 -43z"/>
<path d="M1550 1230 c0 -12 8 -12 35 0 18 8 17 9 -7 9 -16 1 -28 -3 -28 -9z"/>
<path d="M5586 1175 c-3 -8 -1 -15 4 -15 6 0 10 7 10 15 0 8 -2 15 -4 15 -2 0
-6 -7 -10 -15z"/>
<path d="M5591 1134 c0 -11 3 -14 6 -6 3 7 2 16 -1 19 -3 4 -6 -2 -5 -13z"/>
<path d="M241 1104 c0 -11 3 -14 6 -6 3 7 2 16 -1 19 -3 4 -6 -2 -5 -13z"/>
<path d="M5585 1078 c-4 -18 -2 -44 3 -58 8 -20 10 -14 9 33 0 31 -1 57 -3 57
-2 0 -6 -15 -9 -32z"/>
<path d="M5752 1060 c0 -14 2 -19 5 -12 2 6 2 18 0 25 -3 6 -5 1 -5 -13z"/>
<path d="M413 1035 c0 -22 2 -30 4 -17 2 12 2 30 0 40 -3 9 -5 -1 -4 -23z"/>
<path d="M413 945 c0 -27 2 -38 4 -22 2 15 2 37 0 50 -2 12 -4 0 -4 -28z"/>
<path d="M5586 907 c3 -10 9 -15 12 -12 3 3 0 11 -7 18 -10 9 -11 8 -5 -6z"/>
<path d="M261 834 c0 -11 3 -14 6 -6 3 7 2 16 -1 19 -3 4 -6 -2 -5 -13z"/>
<path d="M5581 824 c0 -11 3 -14 6 -6 3 7 2 16 -1 19 -3 4 -6 -2 -5 -13z"/>
<path d="M5735 830 c3 -5 8 -10 11 -10 2 0 4 5 4 10 0 6 -5 10 -11 10 -5 0 -7
-4 -4 -10z"/>
<path d="M442 800 c0 -14 2 -19 5 -12 2 6 2 18 0 25 -3 6 -5 1 -5 -13z"/>
<path d="M471 474 c0 -11 3 -14 6 -6 3 7 2 16 -1 19 -3 4 -6 -2 -5 -13z"/>
<path d="M923 403 c9 -2 23 -2 30 0 6 3 -1 5 -18 5 -16 0 -22 -2 -12 -5z"/>
<path d="M1460 400 c0 -5 5 -10 11 -10 5 0 7 5 4 10 -3 6 -8 10 -11 10 -2 0
-4 -4 -4 -10z"/>
<path d="M1605 400 c-3 -5 -2 -10 4 -10 5 0 13 5 16 10 3 6 2 10 -4 10 -5 0
-13 -4 -16 -10z"/>
<path d="M1698 383 c7 -3 16 -2 19 1 4 3 -2 6 -13 5 -11 0 -14 -3 -6 -6z"/>
<path d="M1868 383 c7 -3 16 -2 19 1 4 3 -2 6 -13 5 -11 0 -14 -3 -6 -6z"/>
<path d="M3323 383 c9 -2 23 -2 30 0 6 3 -1 5 -18 5 -16 0 -22 -2 -12 -5z"/>
<path d="M3627 383 c18 -2 50 -2 70 0 21 2 7 4 -32 4 -38 0 -55 -2 -38 -4z"/>
<path d="M4178 383 c12 -2 32 -2 45 0 12 2 2 4 -23 4 -25 0 -35 -2 -22 -4z"/>
<path d="M4278 383 c6 -2 18 -2 25 0 6 3 1 5 -13 5 -14 0 -19 -2 -12 -5z"/>
<path d="M4598 383 c7 -3 16 -2 19 1 4 3 -2 6 -13 5 -11 0 -14 -3 -6 -6z"/>
<path d="M4733 383 c9 -2 25 -2 35 0 9 3 1 5 -18 5 -19 0 -27 -2 -17 -5z"/>
<path d="M5168 253 c6 -2 18 -2 25 0 6 3 1 5 -13 5 -14 0 -19 -2 -12 -5z"/>
<path d="M1578 233 c7 -3 16 -2 19 1 4 3 -2 6 -13 5 -11 0 -14 -3 -6 -6z"/>
<path d="M2328 233 c7 -3 16 -2 19 1 4 3 -2 6 -13 5 -11 0 -14 -3 -6 -6z"/>
<path d="M2508 233 c6 -2 18 -2 25 0 6 3 1 5 -13 5 -14 0 -19 -2 -12 -5z"/>
<path d="M2918 233 c7 -3 16 -2 19 1 4 3 -2 6 -13 5 -11 0 -14 -3 -6 -6z"/>
<path d="M3948 233 c7 -3 16 -2 19 1 4 3 -2 6 -13 5 -11 0 -14 -3 -6 -6z"/>
</g>
</svg>
