<?xml version="1.0" standalone="no"?>
<!DOCTYPE svg PUBLIC "-//W3C//DTD SVG 20010904//EN"
 "http://www.w3.org/TR/2001/REC-SVG-20010904/DTD/svg10.dtd">
<svg version="1.0" xmlns="http://www.w3.org/2000/svg"
 width="600.000000pt" height="599.000000pt" viewBox="0 0 600.000000 599.000000"
 preserveAspectRatio="xMidYMid meet">
<g transform="translate(0.000000,599.000000) scale(0.100000,-0.100000)"
fill="#000000" stroke="none">
<path d="M875 5980 c-13 -6 2 -7 40 -3 33 3 62 7 64 9 9 8 -85 2 -104 -6z"/>
<path d="M5031 5986 c2 -2 33 -6 69 -9 41 -3 54 -2 35 3 -31 8 -112 13 -104 6z"/>
<path d="M1022 5972 c-13 -4 875 -7 1972 -7 1098 0 1996 3 1996 8 0 9 -3936 8
-3968 -1z"/>
<path d="M818 5963 c6 -2 18 -2 25 0 6 3 1 5 -13 5 -14 0 -19 -2 -12 -5z"/>
<path d="M905 5949 c-13 -6 -4 -7 30 -3 28 4 52 8 54 10 9 8 -65 2 -84 -7z"/>
<path d="M5060 5950 c-11 -8 -7 -9 15 -4 37 8 45 14 19 14 -10 0 -26 -5 -34
-10z"/>
<path d="M5218 5953 c6 -2 18 -2 25 0 6 3 1 5 -13 5 -14 0 -19 -2 -12 -5z"/>
<path d="M725 5940 l-20 -9 20 1 c11 0 34 4 50 8 l30 8 -30 0 c-16 0 -39 -3
-50 -8z"/>
<path d="M850 5940 l-25 -8 28 -1 c15 -1 27 4 27 9 0 6 -1 10 -2 9 -2 -1 -14
-5 -28 -9z"/>
<path d="M5160 5931 c21 -12 99 -24 80 -13 -8 5 -33 12 -55 15 -23 4 -34 3
-25 -2z"/>
<path d="M776 5921 c-3 -4 6 -6 19 -3 14 2 25 6 25 8 0 8 -39 4 -44 -5z"/>
<path d="M670 5910 c0 -5 4 -10 9 -10 6 0 13 5 16 10 3 6 -1 10 -9 10 -9 0
-16 -4 -16 -10z"/>
<path d="M5278 5898 c5 -5 16 -8 23 -6 8 3 3 7 -10 11 -17 4 -21 3 -13 -5z"/>
<path d="M5330 5906 c0 -2 9 -6 20 -9 11 -3 18 -1 14 4 -5 9 -34 13 -34 5z"/>
<path d="M685 5890 c-4 -6 -27 -21 -53 -35 -26 -13 -42 -24 -36 -25 14 0 102
48 109 61 4 5 2 9 -4 9 -5 0 -13 -5 -16 -10z"/>
<path d="M575 5865 c-52 -32 -40 -32 16 0 24 14 40 25 34 25 -5 0 -28 -11 -50
-25z"/>
<path d="M5419 5865 c24 -14 46 -23 48 -21 5 5 -71 46 -84 46 -4 0 12 -12 36
-25z"/>
<path d="M5354 5860 c28 -11 51 -18 53 -16 5 5 -74 36 -90 36 -6 -1 10 -10 37
-20z"/>
<path d="M495 5815 l-30 -25 32 17 c18 10 33 21 33 26 0 10 -2 9 -35 -18z"/>
<path d="M5480 5831 c0 -9 30 -24 36 -18 2 1 -6 8 -16 15 -11 7 -20 8 -20 3z"/>
<path d="M508 5783 c-55 -38 -148 -118 -148 -129 0 -3 34 24 77 60 42 36 89
71 105 78 15 7 28 16 28 20 0 12 -4 10 -62 -29z"/>
<path d="M5460 5801 c0 -6 5 -11 12 -11 6 0 20 -7 30 -17 10 -9 18 -12 18 -7
0 5 -13 18 -30 27 -17 10 -30 13 -30 8z"/>
<path d="M5531 5797 c2 -1 13 -9 24 -17 19 -14 19 -14 6 3 -7 9 -18 17 -24 17
-6 0 -8 -1 -6 -3z"/>
<path d="M409 5752 c-9 -9 -25 -23 -37 -31 -11 -8 -31 -28 -43 -45 -17 -23 -9
-18 32 18 30 27 58 53 63 57 5 5 7 11 5 14 -3 2 -12 -3 -20 -13z"/>
<path d="M5550 5735 c13 -14 30 -25 39 -25 8 0 0 11 -19 25 -19 14 -36 25 -39
25 -2 0 6 -11 19 -25z"/>
<path d="M5580 5757 c0 -2 14 -13 30 -25 35 -26 40 -22 8 8 -19 18 -38 26 -38
17z"/>
<path d="M5612 5684 c10 -10 20 -16 22 -13 3 3 -5 11 -17 18 -21 13 -21 12 -5
-5z"/>
<path d="M5700 5654 c0 -3 14 -22 30 -41 17 -18 30 -31 30 -27 0 3 -13 22 -30
41 -16 18 -30 31 -30 27z"/>
<path d="M279 5623 c-13 -16 -12 -17 4 -4 9 7 17 15 17 17 0 8 -8 3 -21 -13z"/>
<path d="M302 5600 c-7 -11 -8 -20 -3 -20 9 0 24 30 18 36 -1 2 -8 -6 -15 -16z"/>
<path d="M5720 5575 c14 -16 26 -32 28 -34 1 -2 4 -2 7 1 3 2 -10 18 -28 34
l-32 29 25 -30z"/>
<path d="M230 5565 c-7 -9 -8 -15 -2 -15 5 0 12 7 16 15 3 8 4 15 2 15 -2 0
-9 -7 -16 -15z"/>
<path d="M5773 5574 c20 -35 77 -114 77 -107 0 6 -14 30 -31 54 -32 44 -58 75
-46 53z"/>
<path d="M265 5559 c-11 -17 1 -21 15 -4 8 9 8 15 2 15 -6 0 -14 -5 -17 -11z"/>
<path d="M178 5500 c-31 -42 -36 -59 -13 -40 8 7 15 17 15 23 0 6 7 19 17 29
9 10 14 20 12 22 -2 2 -16 -13 -31 -34z"/>
<path d="M5771 5513 c7 -12 15 -20 18 -17 3 2 -3 12 -13 22 -17 16 -18 16 -5
-5z"/>
<path d="M220 5501 c0 -6 4 -13 10 -16 6 -3 7 1 4 9 -7 18 -14 21 -14 7z"/>
<path d="M191 5454 c-12 -27 -11 -28 4 -12 10 9 16 21 13 28 -2 7 -10 -1 -17
-16z"/>
<path d="M5810 5450 c30 -43 44 -47 17 -6 -12 19 -26 35 -30 36 -5 0 1 -13 13
-30z"/>
<path d="M5866 5427 c3 -10 9 -15 12 -12 3 3 0 11 -7 18 -10 9 -11 8 -5 -6z"/>
<path d="M112 5370 c0 -14 2 -19 5 -12 2 6 2 18 0 25 -3 6 -5 1 -5 -13z"/>
<path d="M137 5355 c-24 -50 -20 -58 4 -12 11 22 19 41 17 43 -3 2 -12 -12
-21 -31z"/>
<path d="M5860 5385 c0 -5 5 -17 10 -25 5 -8 10 -10 10 -5 0 6 -5 17 -10 25
-5 8 -10 11 -10 5z"/>
<path d="M5907 5345 c3 -11 11 -23 16 -26 5 -4 11 -19 12 -34 2 -14 11 -42 20
-62 9 -19 20 -56 24 -82 5 -30 10 -41 15 -30 4 8 -4 47 -17 85 -14 38 -28 80
-31 94 -3 14 -15 36 -26 50 -16 20 -19 21 -13 5z"/>
<path d="M5880 5333 c0 -5 4 -13 8 -18 16 -19 63 -167 68 -215 3 -27 24 -165
29 -190 1 -8 3 4 4 27 0 23 -4 64 -9 91 -6 27 -12 60 -14 73 -1 13 -6 38 -10
54 -23 91 -76 215 -76 178z"/>
<path d="M81 5234 c0 -11 3 -14 6 -6 3 7 2 16 -1 19 -3 4 -6 -2 -5 -13z"/>
<path d="M41 5210 c-7 -17 -11 -34 -7 -37 6 -7 28 46 24 59 -2 4 -9 -6 -17
-22z"/>
<path d="M66 5195 c-3 -9 -6 -22 -5 -28 0 -7 5 -1 10 12 5 13 8 26 5 28 -2 2
-6 -3 -10 -12z"/>
<path d="M16 5135 c-3 -8 -1 -25 4 -37 8 -20 9 -18 9 15 1 39 -3 47 -13 22z"/>
<path d="M41 5084 c-7 -37 -10 -68 -7 -71 4 -5 10 22 21 95 11 68 -2 48 -14
-24z"/>
<path d="M5992 5070 c0 -14 2 -19 5 -12 2 6 2 18 0 25 -3 6 -5 1 -5 -13z"/>
<path d="M3 4995 c0 -27 2 -38 4 -22 2 15 2 37 0 50 -2 12 -4 0 -4 -28z"/>
<path d="M1745 5007 c-33 -4 -71 -9 -85 -11 -14 -2 -27 -5 -30 -6 -3 -1 -8 -2
-11 -2 -3 1 -44 -13 -90 -29 -46 -16 -93 -32 -103 -34 -11 -3 -24 -9 -30 -15
-8 -8 -5 -9 9 -5 18 6 18 5 2 -5 -9 -6 -22 -8 -29 -4 -6 4 -8 3 -5 -3 4 -6 -1
-14 -11 -18 -9 -3 -18 -5 -18 -3 -1 2 -17 -15 -35 -36 -19 -22 -51 -59 -71
-81 -21 -23 -38 -51 -38 -61 0 -14 -2 -16 -9 -6 -7 11 -10 10 -15 -3 -9 -24
-8 -27 7 -19 10 7 -5 -18 -23 -36 -9 -9 -41 -69 -41 -77 1 -5 -2 -16 -5 -27
-4 -13 -9 -15 -13 -7 -4 7 -8 -3 -8 -21 0 -17 -5 -34 -11 -36 -7 -2 -12 -11
-12 -20 0 -9 -13 -53 -30 -96 -16 -43 -28 -82 -28 -85 1 -3 -4 -26 -12 -51 -8
-29 -12 -94 -11 -185 2 -191 4 -214 13 -209 4 3 8 -5 8 -18 0 -27 54 -219 70
-249 7 -11 9 -23 7 -26 -3 -3 4 -21 15 -41 11 -20 21 -54 23 -76 2 -22 10 -45
19 -52 9 -6 13 -14 9 -17 -3 -4 -1 -7 5 -7 6 0 9 -7 5 -17 -5 -12 -3 -14 7 -8
8 5 11 4 7 -2 -6 -9 12 -61 44 -128 5 -11 11 -31 14 -44 2 -13 12 -32 20 -41
9 -10 17 -27 18 -38 0 -11 5 -18 11 -15 5 4 7 -1 3 -10 -3 -10 -2 -17 4 -17 6
0 6 -7 -1 -19 -15 -29 -12 -38 5 -15 15 18 15 18 8 0 -4 -13 -3 -17 5 -12 8 5
10 1 5 -10 -4 -11 -2 -15 4 -11 6 4 20 -12 32 -39 12 -24 35 -63 51 -86 17
-23 30 -47 30 -54 0 -7 5 -14 11 -16 6 -2 12 -15 12 -30 2 -20 5 -24 15 -16 9
8 12 4 12 -16 0 -18 5 -26 17 -26 9 0 14 -3 10 -6 -3 -4 1 -13 9 -21 8 -8 12
-18 9 -23 -3 -5 7 -18 21 -29 15 -12 24 -21 20 -21 -3 0 2 -8 12 -18 28 -30
47 -63 44 -75 -2 -7 -1 -9 3 -5 4 3 15 -2 26 -13 22 -22 25 -34 7 -23 -12 8
23 -33 87 -100 16 -17 28 -38 27 -46 -2 -12 -1 -12 6 -1 12 16 27 -3 16 -21
-5 -7 -3 -8 6 -3 10 6 12 4 7 -8 -3 -9 -3 -16 1 -16 20 3 32 -2 32 -15 0 -7
10 -21 23 -30 12 -9 16 -14 8 -10 -9 5 -12 3 -7 -4 4 -6 14 -8 23 -5 9 4 14 2
11 -3 -3 -5 0 -15 8 -22 8 -7 14 -9 14 -5 0 4 4 1 10 -7 5 -9 5 -19 -1 -26 -7
-8 -6 -15 2 -20 8 -4 9 -3 5 4 -4 7 -3 12 2 12 11 0 83 -70 73 -71 -3 0 4 -4
17 -10 15 -5 21 -13 16 -21 -4 -7 -4 -10 1 -6 4 4 18 -6 30 -22 12 -16 26 -26
30 -22 5 4 5 -1 2 -10 -4 -13 -2 -15 10 -11 12 5 14 3 8 -7 -5 -8 -4 -11 2 -7
11 7 36 -18 46 -46 4 -10 11 -16 15 -13 5 3 20 -6 32 -19 13 -14 28 -25 32
-25 5 0 29 -20 52 -45 24 -25 48 -45 54 -45 6 0 23 -15 37 -32 15 -18 23 -26
19 -18 -7 13 -5 13 9 1 9 -7 17 -21 17 -30 0 -13 2 -13 9 -2 6 9 11 10 15 2 4
-6 5 -15 2 -19 -3 -5 1 -9 9 -9 8 0 11 5 8 11 -4 6 3 3 15 -8 12 -10 19 -22
17 -27 -3 -4 5 -9 17 -11 13 -2 22 -9 21 -16 -2 -6 0 -11 5 -11 24 4 34 -2 27
-19 -5 -13 -3 -14 6 -5 12 12 16 10 64 -35 13 -12 30 -22 37 -22 9 0 9 -3 -2
-10 -11 -8 -8 -9 12 -4 20 4 29 1 38 -15 6 -12 17 -21 24 -21 7 0 25 -9 40
-21 14 -11 31 -17 38 -14 7 4 4 -1 -7 -11 -19 -16 -19 -16 -1 -10 12 4 26 0
37 -10 11 -10 19 -14 19 -9 0 4 6 3 13 -3 11 -10 17 -12 35 -12 4 0 0 -5 -8
-11 -12 -8 -10 -9 9 -4 17 5 22 4 16 -5 -5 -8 -4 -11 3 -6 6 3 13 2 17 -4 3
-5 15 -10 26 -10 13 0 18 -4 13 -12 -4 -6 -3 -8 4 -5 5 4 18 4 27 1 13 -5 14
-8 3 -15 -9 -6 -5 -9 13 -9 39 0 90 -20 82 -33 -4 -6 -1 -7 6 -3 7 5 19 0 27
-10 9 -11 13 -13 9 -6 -9 17 3 15 21 -3 9 -8 26 -15 39 -15 13 0 26 -4 30 -10
3 -5 13 -6 22 -3 11 4 14 3 9 -6 -5 -8 -3 -12 5 -10 30 4 50 -2 44 -12 -4 -6
-1 -9 6 -8 8 1 25 -2 39 -8 38 -16 90 -33 145 -50 28 -8 64 -20 80 -27 60 -27
127 -46 138 -39 6 3 7 1 3 -5 -4 -7 3 -11 21 -11 33 1 109 -7 164 -16 63 -11
153 -12 165 -3 7 5 33 9 58 10 26 0 49 4 51 9 3 4 20 6 38 4 24 -4 29 -2 17 6
-11 8 -8 9 13 4 17 -3 26 -2 23 3 -6 10 42 23 84 22 16 0 21 3 13 8 -8 5 11
13 48 21 40 9 56 17 47 22 -10 7 -10 9 0 9 7 0 29 7 50 17 20 9 39 17 42 18
32 8 50 18 50 26 0 5 9 9 21 9 11 0 17 5 14 10 -3 6 0 10 9 10 8 0 28 11 44
25 17 14 32 25 35 25 2 0 22 17 43 37 21 20 33 33 25 28 -10 -5 -12 -4 -7 3 4
7 13 12 20 12 16 0 96 121 96 147 0 10 7 27 15 37 8 10 12 23 9 27 -3 5 0 9 6
9 7 0 10 7 7 15 -4 8 -2 17 2 20 9 5 17 39 26 115 4 25 10 74 14 110 5 36 7
68 5 71 -2 3 -5 18 -8 33 -6 35 -25 58 -40 49 -6 -3 -8 -3 -4 2 10 10 -155
124 -204 141 -10 4 -18 11 -18 16 0 5 -4 7 -9 3 -5 -3 -22 6 -37 20 -14 13
-31 22 -36 19 -5 -3 -19 3 -31 14 -12 11 -34 24 -49 27 -16 4 -28 14 -28 24 0
14 -2 14 -10 1 -6 -9 -10 -10 -10 -3 0 6 -16 17 -35 24 -19 7 -35 16 -35 20 0
4 -11 10 -25 13 -13 3 -34 16 -46 29 -12 12 -19 17 -15 10 3 -6 -15 0 -41 15
-27 14 -49 30 -51 34 -2 4 -12 8 -23 8 -10 0 -19 4 -19 8 0 4 -18 19 -39 32
-31 20 -37 28 -28 39 10 12 8 12 -12 2 -13 -7 -21 -8 -17 -3 3 6 2 13 -4 17
-5 3 -10 0 -10 -7 0 -10 -2 -10 -9 1 -5 8 -17 15 -28 16 -10 1 -26 6 -36 10
-17 7 -46 4 -97 -10 -14 -4 -30 -7 -37 -7 -7 -1 -10 -5 -8 -8 5 -9 -51 -70
-64 -70 -5 0 -17 -12 -27 -27 -21 -33 -46 -53 -57 -46 -4 2 -7 1 -6 -4 1 -4 0
-11 -1 -15 -1 -5 -3 -12 -4 -16 0 -5 -19 -27 -41 -48 -22 -22 -49 -52 -59 -67
-11 -14 -25 -23 -30 -20 -6 4 -8 3 -4 -2 11 -11 -12 -36 -25 -28 -5 3 -7 2 -4
-4 9 -14 -23 -55 -38 -49 -9 3 -12 -2 -10 -14 2 -11 -1 -23 -7 -26 -7 -5 -8
-2 -4 7 4 8 -1 5 -11 -7 -33 -37 -66 -51 -97 -43 -16 5 -34 5 -39 2 -6 -3 -7
-1 -3 5 5 8 0 12 -13 12 -11 0 -25 8 -30 17 -6 10 -11 13 -11 6 0 -8 -7 -8
-30 0 -16 6 -25 14 -20 17 5 3 0 11 -11 19 -12 7 -18 8 -14 2 3 -6 1 -11 -4
-11 -6 0 -11 4 -11 9 0 5 -16 15 -34 22 -19 7 -33 16 -30 20 2 4 -5 11 -17 14
-14 5 -18 12 -14 23 5 14 4 15 -6 5 -15 -15 -33 -17 -24 -3 3 5 0 7 -9 4 -8
-3 -24 4 -35 15 -12 12 -24 21 -27 21 -4 0 -13 8 -21 18 -8 9 -11 11 -7 3 5
-10 3 -12 -5 -7 -7 5 -10 14 -8 21 3 7 -3 12 -16 11 -21 -1 -67 33 -67 50 0 5
5 2 10 -6 6 -9 10 -10 10 -3 0 16 -17 26 -25 13 -9 -14 -25 -12 -23 3 2 6 -5
11 -14 11 -10 -1 -15 2 -12 7 3 5 -1 9 -8 9 -7 0 -24 10 -38 21 -16 14 -19 19
-7 15 9 -3 17 -1 17 4 0 6 -9 10 -19 10 -11 0 -27 10 -35 22 -9 12 -16 18 -16
12 0 -5 6 -17 12 -25 13 -15 -85 74 -112 102 -8 9 -25 21 -38 28 -12 7 -20 16
-17 22 4 5 3 9 -2 9 -14 0 -78 62 -75 72 1 5 -2 7 -8 3 -5 -3 -10 1 -10 10 0
9 -4 14 -8 11 -5 -3 -15 6 -22 19 -7 14 -17 25 -22 25 -4 0 -8 7 -8 16 0 11
-5 14 -16 10 -14 -6 -15 -4 -4 9 7 9 9 15 4 13 -16 -5 -66 40 -58 53 4 7 3 9
-3 6 -6 -4 -17 1 -24 10 -10 11 -10 14 -2 9 9 -5 11 -2 7 8 -3 9 -10 14 -14
11 -12 -8 -33 23 -26 40 3 8 2 14 -2 14 -19 -3 -33 2 -28 10 3 5 -10 26 -29
47 -19 22 -35 45 -35 52 0 6 -5 12 -11 12 -6 0 -8 7 -5 17 4 10 4 14 0 11 -6
-7 -34 15 -34 27 0 4 -9 19 -20 35 -11 15 -16 31 -12 35 4 5 1 4 -7 0 -11 -6
-13 -4 -8 8 3 9 1 19 -5 23 -7 5 -8 2 -3 -7 6 -11 5 -12 -5 -2 -11 10 -11 15
-1 27 11 13 9 17 -12 27 -14 6 -33 28 -42 48 -8 20 -24 50 -34 66 -23 35 -26
49 -9 39 7 -4 8 -3 4 4 -4 6 -14 8 -24 5 -9 -3 -14 -3 -10 2 4 4 3 16 -3 26
-5 10 -12 36 -15 58 -5 33 -1 44 25 73 17 19 28 38 24 42 -3 3 -2 6 3 6 6 0
19 7 30 16 10 8 12 13 4 9 -8 -4 -6 0 4 9 10 8 23 13 27 10 5 -3 6 3 2 13 -6
16 -5 17 12 3 12 -10 16 -10 11 -2 -5 8 1 21 16 35 49 46 81 67 91 60 5 -3 7
-1 4 4 -7 11 53 63 72 63 6 0 10 6 8 13 -1 6 6 11 15 11 10 -1 16 1 15 5 -1 3
15 23 36 44 20 20 37 42 37 47 0 6 7 10 16 10 8 0 12 5 9 10 -3 6 -1 10 4 10
6 0 11 6 11 14 0 7 7 19 15 26 13 11 14 48 2 126 -5 32 -29 84 -38 84 -5 0 -9
6 -9 13 0 8 -9 22 -20 32 -11 10 -17 22 -13 28 4 6 1 7 -7 2 -10 -6 -11 -1 -6
21 4 18 3 24 -2 16 -7 -10 -13 -7 -25 12 -10 14 -17 29 -17 34 0 4 -5 13 -12
20 -11 11 -18 30 -20 59 -1 7 -6 9 -11 6 -6 -4 -8 0 -4 10 4 10 2 16 -5 14 -6
-1 -13 4 -16 12 -3 9 0 11 8 6 9 -5 11 -4 6 4 -4 6 -11 9 -15 7 -8 -5 -51 73
-51 93 0 6 -3 11 -8 11 -4 0 -16 17 -27 38 -10 20 -27 48 -36 62 -9 14 -20 36
-24 49 -4 12 -18 39 -31 58 -13 20 -24 45 -24 57 0 17 -2 18 -10 6 -7 -11 -10
-12 -10 -2 0 8 -9 27 -21 43 -11 16 -17 29 -13 29 4 0 -6 12 -22 27 -16 15
-33 36 -39 46 -15 30 -98 39 -210 24z m178 -37 c15 -12 50 -58 80 -103 48 -74
250 -433 307 -547 13 -25 42 -72 66 -106 82 -115 100 -183 68 -247 -25 -48
-118 -141 -224 -225 -113 -89 -236 -206 -256 -244 -31 -58 -13 -112 106 -314
218 -369 432 -624 710 -846 174 -138 535 -363 624 -388 97 -27 124 -7 345 248
206 238 253 270 349 238 27 -9 82 -39 122 -67 41 -28 155 -94 254 -148 317
-172 464 -261 505 -304 23 -25 23 -31 18 -129 -8 -166 -59 -329 -133 -427
-139 -185 -544 -361 -829 -361 -95 0 -242 22 -340 52 -167 50 -513 186 -670
263 -237 116 -538 320 -730 493 -480 432 -784 815 -990 1245 -57 118 -187 458
-235 613 -31 101 -60 274 -60 363 0 231 144 595 303 768 72 78 185 134 338
167 152 32 236 34 272 6z m97 -1444 c0 -2 -8 -10 -17 -17 -16 -13 -17 -12 -4
4 13 16 21 21 21 13z m-870 -151 c7 -9 8 -15 2 -15 -5 0 -12 7 -16 15 -3 8 -4
15 -2 15 2 0 9 -7 16 -15z m975 -213 c-3 -3 -11 0 -18 7 -9 10 -8 11 6 5 10
-3 15 -9 12 -12z"/>
<path d="M1924 4909 c-4 -7 -3 -9 4 -5 6 3 13 -2 15 -11 4 -16 5 -16 6 -1 1
21 -15 32 -25 17z"/>
<path d="M1426 4815 c6 -16 5 -18 -7 -7 -7 6 -17 12 -23 12 -5 0 -1 -6 10 -14
23 -17 45 -3 25 17 -10 10 -11 8 -5 -8z"/>
<path d="M1334 4739 c-3 -6 -2 -15 3 -20 5 -5 9 -1 9 11 0 23 -2 24 -12 9z"/>
<path d="M2090 4636 c0 -2 8 -10 18 -17 15 -13 16 -12 3 4 -13 16 -21 21 -21
13z"/>
<path d="M2406 3987 c3 -10 9 -15 12 -12 3 3 0 11 -7 18 -10 9 -11 8 -5 -6z"/>
<path d="M2019 3649 l-24 -20 28 17 c15 9 27 18 27 20 0 8 -8 4 -31 -17z"/>
<path d="M1257 3333 c3 -7 6 -13 8 -13 2 0 5 6 8 13 3 8 -1 14 -8 14 -7 0 -11
-6 -8 -14z"/>
<path d="M1410 2941 c0 -6 4 -13 10 -16 6 -3 7 1 4 9 -7 18 -14 21 -14 7z"/>
<path d="M1480 2781 c0 -6 4 -13 10 -16 6 -3 7 1 4 9 -7 18 -14 21 -14 7z"/>
<path d="M2326 2707 c3 -10 9 -15 12 -12 3 3 0 11 -7 18 -10 9 -11 8 -5 -6z"/>
<path d="M1585 2699 c-4 -6 -5 -12 -2 -15 2 -3 7 2 10 11 7 17 1 20 -8 4z"/>
<path d="M2470 2576 c0 -2 8 -10 18 -17 15 -13 16 -12 3 4 -13 16 -21 21 -21
13z"/>
<path d="M1720 2456 c0 -2 8 -10 18 -17 15 -13 16 -12 3 4 -13 16 -21 21 -21
13z"/>
<path d="M1819 2353 c-13 -16 -12 -17 4 -4 9 7 17 15 17 17 0 8 -8 3 -21 -13z"/>
<path d="M4165 2350 c-3 -6 1 -7 9 -4 18 7 21 14 7 14 -6 0 -13 -4 -16 -10z"/>
<path d="M3890 2326 c0 -2 7 -7 16 -10 8 -3 12 -2 9 4 -6 10 -25 14 -25 6z"/>
<path d="M1865 2299 c-4 -6 -5 -12 -2 -15 2 -3 7 2 10 11 7 17 1 20 -8 4z"/>
<path d="M1905 2280 c-4 -6 -11 -7 -17 -4 -7 4 -8 2 -4 -5 6 -9 11 -9 22 0 14
11 18 19 10 19 -3 0 -8 -5 -11 -10z"/>
<path d="M2809 2278 c-6 -20 -6 -39 0 -42 4 -3 7 6 7 20 0 20 -4 32 -7 22z"/>
<path d="M1971 2213 c7 -12 15 -20 18 -17 3 2 -3 12 -13 22 -17 16 -18 16 -5
-5z"/>
<path d="M1960 2191 c0 -6 4 -13 10 -16 6 -3 7 1 4 9 -7 18 -14 21 -14 7z"/>
<path d="M3043 2097 c0 -8 6 -14 14 -14 9 0 10 4 2 14 -6 7 -12 13 -14 13 -1
0 -2 -6 -2 -13z"/>
<path d="M3746 2097 c3 -10 9 -15 12 -12 3 3 0 11 -7 18 -10 9 -11 8 -5 -6z"/>
<path d="M2216 1955 c-11 -8 -15 -15 -9 -15 6 0 16 7 23 15 16 19 11 19 -14 0z"/>
<path d="M4883 1935 c0 -7 6 -11 14 -8 7 3 13 6 13 8 0 2 -6 5 -13 8 -8 3 -14
-1 -14 -8z"/>
<path d="M2283 1899 c15 -9 16 -13 5 -27 -11 -15 -11 -15 3 -5 9 7 20 9 25 5
5 -4 0 3 -10 16 -11 12 -24 22 -30 22 -6 0 -3 -5 7 -11z"/>
<path d="M2368 1813 c10 -4 10 -8 0 -21 -11 -15 -11 -15 3 -5 9 7 18 11 21 8
2 -3 5 1 5 8 0 7 -10 13 -21 14 -12 1 -15 -1 -8 -4z"/>
<path d="M2434 1734 c9 -6 12 -15 8 -19 -4 -5 -1 -5 6 -1 7 4 9 12 6 18 -5 8
-1 9 12 4 10 -4 15 -3 10 1 -4 4 -19 8 -33 8 -21 1 -22 -1 -9 -11z"/>
<path d="M2837 1469 c7 -7 15 -10 18 -7 3 3 -2 9 -12 12 -14 6 -15 5 -6 -5z"/>
<path d="M2944 1422 c3 -5 0 -13 -6 -15 -9 -4 -10 -6 -1 -6 17 -1 25 16 12 25
-7 4 -9 3 -5 -4z"/>
<path d="M4834 1422 c-9 -5 -8 -10 2 -19 8 -8 15 -9 19 -3 3 6 1 10 -5 10 -6
0 -8 5 -5 10 7 12 4 12 -11 2z"/>
<path d="M4809 1368 c-5 -18 -6 -38 -1 -34 7 8 12 36 6 36 -2 0 -4 -1 -5 -2z"/>
<path d="M3094 1335 c-18 -15 -18 -15 0 -8 15 5 17 3 11 -8 -5 -8 -4 -11 0 -6
8 7 17 37 11 37 -1 0 -11 -7 -22 -15z"/>
<path d="M3505 1171 c-3 -5 -2 -12 3 -15 5 -3 9 1 9 9 0 17 -3 19 -12 6z"/>
<path d="M3818 1083 c7 -3 16 -2 19 1 4 3 -2 6 -13 5 -11 0 -14 -3 -6 -6z"/>
<path d="M32 4980 c0 -14 2 -19 5 -12 2 6 2 18 0 25 -3 6 -5 1 -5 -13z"/>
<path d="M25 2990 c0 -1070 1 -1507 2 -972 2 534 2 1410 0 1945 -1 534 -2 97
-2 -973z"/>
<path d="M1236 4778 c3 -5 10 -6 15 -3 13 9 11 12 -6 12 -8 0 -12 -4 -9 -9z"/>
<path d="M3090 2156 c0 -2 7 -7 16 -10 8 -3 12 -2 9 4 -6 10 -25 14 -25 6z"/>
<path d="M4758 1193 c6 -2 18 -2 25 0 6 3 1 5 -13 5 -14 0 -19 -2 -12 -5z"/>
<path d="M5978 1035 c-4 -38 -10 -79 -14 -89 -5 -13 -4 -17 4 -12 14 8 25 78
20 131 -2 32 -4 26 -10 -30z"/>
<path d="M3588 1043 c7 -3 16 -2 19 1 4 3 -2 6 -13 5 -11 0 -14 -3 -6 -6z"/>
<path d="M3 980 c0 -25 2 -35 4 -22 2 12 2 32 0 45 -2 12 -4 2 -4 -23z"/>
<path d="M33 956 c3 -32 11 -64 18 -70 9 -8 10 -6 5 9 -4 11 -10 40 -13 65 -3
25 -7 47 -10 50 -3 3 -3 -22 0 -54z"/>
<path d="M17 895 c3 -22 7 -42 9 -44 8 -9 2 45 -6 64 -7 14 -8 8 -3 -20z"/>
<path d="M5991 914 c0 -11 3 -14 6 -6 3 7 2 16 -1 19 -3 4 -6 -2 -5 -13z"/>
<path d="M5961 874 c0 -11 3 -14 6 -6 3 7 2 16 -1 19 -3 4 -6 -2 -5 -13z"/>
<path d="M5980 863 c0 -16 -3 -39 -6 -53 -4 -18 -3 -21 4 -10 14 22 22 90 11
90 -5 0 -9 -12 -9 -27z"/>
<path d="M61 837 c-1 -25 30 -130 36 -123 4 4 -8 52 -32 131 -2 6 -4 2 -4 -8z"/>
<path d="M5951 834 c0 -11 3 -14 6 -6 3 7 2 16 -1 19 -3 4 -6 -2 -5 -13z"/>
<path d="M32 815 c0 -11 3 -29 8 -40 11 -25 11 1 0 35 -6 20 -8 21 -8 5z"/>
<path d="M5922 755 c-7 -14 -12 -31 -12 -38 1 -7 7 3 16 22 17 39 13 54 -4 16z"/>
<path d="M5950 745 c-7 -9 -8 -15 -2 -15 5 0 12 7 16 15 3 8 4 15 2 15 -2 0
-9 -7 -16 -15z"/>
<path d="M50 744 c0 -6 7 -19 15 -30 8 -10 14 -14 14 -9 0 6 -6 19 -14 29 -8
11 -15 15 -15 10z"/>
<path d="M5896 685 c-9 -26 -7 -32 5 -12 6 10 9 21 6 23 -2 3 -7 -2 -11 -11z"/>
<path d="M117 660 c3 -10 11 -24 19 -31 10 -8 10 -3 -2 20 -18 35 -24 40 -17
11z"/>
<path d="M5921 666 c-12 -14 -27 -76 -16 -65 3 4 8 16 10 29 2 12 9 28 16 36
6 8 9 14 6 14 -2 0 -10 -6 -16 -14z"/>
<path d="M91 654 c-2 -20 78 -159 86 -150 3 3 -9 26 -26 51 -17 25 -31 53 -31
61 0 7 -4 14 -9 14 -5 0 -12 8 -14 18 -3 9 -5 12 -6 6z"/>
<path d="M5866 624 c-15 -14 -22 -34 -12 -34 2 0 11 11 20 25 19 28 15 33 -8
9z"/>
<path d="M150 605 c0 -5 5 -17 10 -25 5 -8 10 -10 10 -5 0 6 -5 17 -10 25 -5
8 -10 11 -10 5z"/>
<path d="M186 550 c23 -80 237 -301 364 -375 144 -85 307 -151 286 -116 -4 6
-13 10 -19 9 -20 -4 -197 74 -191 84 3 5 0 8 -7 6 -19 -4 -148 73 -145 86 2 6
1 8 -1 4 -5 -9 -48 29 -118 102 -102 108 -127 139 -119 152 4 7 3 9 -1 5 -5
-4 -20 9 -33 30 -17 27 -21 31 -16 13z"/>
<path d="M5820 545 c-7 -9 -11 -17 -9 -20 3 -2 10 5 17 15 14 24 10 26 -8 5z"/>
<path d="M5802 461 c-28 -37 -99 -114 -157 -170 -99 -93 -132 -129 -74 -81
103 88 192 180 237 244 29 42 51 76 49 76 -2 0 -27 -31 -55 -69z"/>
<path d="M5749 450 c-35 -39 -21 -39 16 0 16 17 25 30 19 30 -5 -1 -21 -14
-35 -30z"/>
<path d="M221 430 c45 -60 131 -151 137 -145 3 2 -18 28 -45 57 -28 29 -67 71
-88 93 l-37 40 33 -45z"/>
<path d="M5698 385 c-25 -34 -22 -43 3 -11 12 15 20 29 18 31 -2 1 -12 -7 -21
-20z"/>
<path d="M5627 317 c-20 -22 -37 -43 -37 -45 0 -7 54 39 68 59 25 36 8 28 -31
-14z"/>
<path d="M410 235 c24 -25 50 -45 57 -45 7 0 13 -4 13 -9 0 -5 8 -12 18 -15
34 -13 72 -37 72 -47 0 -5 6 -9 14 -9 8 0 21 -6 28 -13 14 -15 20 -17 42 -17
8 0 21 -6 28 -12 7 -7 24 -15 38 -17 14 -1 27 -6 30 -11 8 -11 52 -24 74 -21
11 2 16 -2 12 -8 -5 -7 13 -11 55 -11 70 0 77 8 11 11 -24 2 -46 7 -48 11 -3
4 -14 8 -25 8 -66 0 -328 136 -412 215 -54 50 -59 43 -7 -10z"/>
<path d="M5520 229 c-30 -22 -63 -46 -72 -54 -20 -17 -89 -49 -100 -47 -5 1
-8 -2 -8 -7 0 -9 -48 -26 -63 -22 -5 1 -6 -3 -2 -9 7 -11 38 0 115 41 69 37
179 112 184 126 7 16 11 18 -54 -28z"/>
<path d="M5492 168 c-18 -11 -31 -22 -29 -25 6 -5 67 30 67 40 0 9 2 9 -38
-15z"/>
<path d="M5390 105 c-25 -14 -40 -25 -33 -25 6 0 33 11 60 25 26 13 41 24 33
24 -8 0 -35 -11 -60 -24z"/>
<path d="M5232 78 c-8 -8 -109 -35 -182 -48 -8 -2 -919 -6 -2025 -9 l-2010 -6
2030 0 2030 1 94 27 c104 30 108 32 88 40 -8 3 -19 1 -25 -5z"/>
<path d="M5280 59 c-25 -11 -67 -25 -95 -31 -27 -5 -54 -15 -60 -20 -7 -7 -3
-8 10 -4 11 3 42 10 70 16 52 12 135 45 135 54 0 9 -12 6 -60 -15z"/>
<path d="M865 41 c11 -5 45 -11 75 -14 l55 -6 -50 14 c-58 15 -114 19 -80 6z"/>
<path d="M5078 3 c6 -2 18 -2 25 0 6 3 1 5 -13 5 -14 0 -19 -2 -12 -5z"/>
</g>
</svg>
