<?xml version="1.0" standalone="no"?>
<!DOCTYPE svg PUBLIC "-//W3C//DTD SVG 20010904//EN"
 "http://www.w3.org/TR/2001/REC-SVG-20010904/DTD/svg10.dtd">
<svg version="1.0" xmlns="http://www.w3.org/2000/svg"
 width="600.000000pt" height="400.000000pt" viewBox="0 0 600.000000 400.000000"
 preserveAspectRatio="xMidYMid meet">
<g transform="translate(0.000000,400.000000) scale(0.100000,-0.100000)"
fill="#000000" stroke="none">
<path d="M3663 2787 c-19 -7 -40 -25 -55 -49 -12 -20 -26 -38 -30 -38 -12 0
-8 -62 5 -93 12 -28 10 -31 -62 -105 -40 -43 -78 -76 -82 -74 -5 1 -9 -5 -9
-14 0 -9 -5 -12 -12 -8 -6 4 -8 3 -5 -3 4 -6 -3 -21 -14 -34 -16 -18 -31 -24
-65 -25 -24 0 -44 3 -44 8 0 5 -11 1 -24 -8 -14 -8 -28 -15 -31 -14 -4 1 -17
-7 -29 -18 -19 -16 -26 -17 -40 -6 -10 7 -24 10 -32 7 -8 -3 -30 4 -50 16 -19
12 -32 17 -29 11 21 -34 -70 15 -99 53 -15 20 -48 46 -73 58 -40 19 -49 20
-85 10 -77 -23 -133 -105 -116 -168 9 -32 6 -36 -39 -83 -26 -27 -73 -78 -103
-114 l-55 -65 -61 1 c-47 0 -68 -5 -95 -22 -117 -77 -62 -261 79 -262 72 0 83
4 121 46 33 36 35 42 34 105 l-1 66 82 90 c44 49 88 97 97 106 13 13 26 15 63
9 53 -8 106 11 144 53 23 24 70 28 55 4 -3 -5 -2 -7 4 -4 14 9 144 -23 137
-34 -3 -5 0 -9 5 -9 6 0 11 -11 11 -24 0 -16 14 -36 41 -59 34 -28 50 -34 94
-36 45 -2 58 2 95 31 34 26 46 43 55 80 6 26 8 53 4 60 -15 23 -10 32 54 99
99 106 132 142 149 167 9 13 18 19 21 15 3 -5 27 -8 52 -7 128 7 196 142 118
234 -47 57 -104 72 -180 47z m153 -52 c30 -29 34 -38 34 -83 0 -43 -5 -55 -30
-80 -103 -104 -271 10 -205 138 23 44 81 70 137 62 16 -3 45 -19 64 -37z
m-190 -210 c7 -17 -14 -43 -128 -165 -66 -70 -82 -82 -96 -73 -9 5 -17 15 -17
20 0 6 45 60 100 122 96 107 129 129 141 96z m-740 -105 c54 -27 73 -64 64
-127 -20 -129 -203 -139 -241 -13 -17 57 9 112 65 140 51 25 60 25 112 0z
m189 -118 c89 -28 105 -41 86 -71 -7 -11 -26 -8 -102 16 -86 26 -94 31 -97 56
-4 34 0 34 113 -1z m278 6 c62 -32 88 -93 63 -152 -41 -99 -191 -99 -232 0
-24 58 9 136 66 157 27 10 81 7 103 -5z m-623 -93 c10 -12 6 -22 -25 -57 -82
-93 -168 -178 -180 -178 -22 0 -26 31 -8 54 47 59 179 196 189 196 6 0 17 -7
24 -15z m-235 -233 c31 -23 45 -54 45 -104 0 -34 -6 -46 -36 -74 -30 -29 -42
-34 -85 -34 -80 0 -129 47 -129 124 0 40 46 102 83 109 36 8 97 -2 122 -21z"/>
<path d="M3671 2694 c-12 -15 -21 -35 -21 -46 0 -27 45 -68 75 -68 33 0 75 42
75 75 0 62 -89 89 -129 39z m97 -7 c20 -16 14 -54 -14 -76 -21 -17 -30 -19
-48 -9 -27 14 -36 27 -36 55 0 42 59 61 98 30z"/>
<path d="M2782 2364 c-32 -22 -30 -76 4 -103 15 -12 34 -21 44 -21 31 0 70 39
70 71 0 58 -67 89 -118 53z m98 -55 c0 -62 -94 -65 -100 -3 -4 36 0 43 33 52
40 11 67 -8 67 -49z"/>
<path d="M3262 2258 c-48 -24 -35 -103 21 -122 61 -22 114 67 68 113 -23 23
-53 26 -89 9z m66 -14 c14 -10 22 -25 22 -45 0 -56 -89 -61 -104 -5 -4 15 2
27 22 43 32 27 32 27 60 7z"/>
<path d="M2369 1942 c-28 -23 -30 -73 -4 -102 27 -30 78 -27 104 6 27 35 26
59 -4 89 -29 30 -64 32 -96 7z m84 -16 c29 -23 21 -63 -18 -83 -42 -22 -85 20
-70 66 9 30 58 39 88 17z"/>
<path d="M3652 2367 c-22 -23 -22 -27 -22 -395 l-1 -372 -140 1 c-100 1 -142
5 -145 13 -3 7 -6 93 -7 190 -3 162 -5 179 -22 192 -26 19 -51 18 -73 -4 -16
-16 -19 -33 -16 -108 1 -49 0 -132 -3 -186 l-5 -96 -168 1 -168 0 -5 31 c-3
17 -4 114 -2 216 2 195 -3 222 -45 233 -19 5 -60 -25 -60 -44 0 -6 -4 -8 -8
-5 -5 3 -9 -1 -9 -9 0 -8 5 -15 11 -15 6 0 5 -4 -3 -9 -9 -6 -10 -13 -3 -28
11 -20 9 -179 -2 -190 -3 -3 -6 -11 -6 -17 0 -6 5 -4 10 4 8 11 10 6 6 -20 -2
-19 -5 -37 -6 -40 -6 -15 -4 -96 2 -101 5 -3 -60 -6 -142 -7 -137 -2 -150 0
-150 16 0 28 -29 62 -54 62 -30 0 -66 -32 -66 -59 0 -20 -5 -21 -78 -21 -47 0
-83 -5 -90 -12 -16 -16 -15 -50 1 -71 11 -16 73 -17 841 -18 786 -1 831 0 843
17 31 42 -4 90 -63 85 -61 -5 -60 -12 -59 385 0 342 -1 363 -19 383 -25 27
-47 27 -74 -2z m66 -402 l2 -390 58 3 c62 4 90 -12 78 -43 -5 -13 -103 -15
-831 -15 -728 0 -826 2 -831 15 -13 33 15 45 105 45 l86 0 0 31 c0 42 30 62
51 34 8 -11 12 -30 9 -45 l-6 -25 176 0 175 0 0 236 c0 201 2 238 15 243 8 3
22 3 30 0 13 -5 15 -42 15 -243 l0 -236 200 0 200 0 0 201 c0 170 2 203 15
208 8 3 22 3 30 0 13 -5 15 -38 15 -208 l0 -201 175 0 175 0 0 386 c0 212 3
389 7 393 4 4 16 6 28 4 20 -3 20 -9 23 -393z"/>
</g>
</svg>
