<?xml version="1.0" standalone="no"?>
<!DOCTYPE svg PUBLIC "-//W3C//DTD SVG 20010904//EN"
 "http://www.w3.org/TR/2001/REC-SVG-20010904/DTD/svg10.dtd">
<svg version="1.0" xmlns="http://www.w3.org/2000/svg"
 width="600.000000pt" height="600.000000pt" viewBox="0 0 600.000000 600.000000"
 preserveAspectRatio="xMidYMid meet">
<g transform="translate(0.000000,600.000000) scale(0.100000,-0.100000)"
fill="#000000" stroke="none">
<path d="M1765 4779 c-226 -55 -424 -225 -510 -437 -56 -139 -55 -108 -55
-1338 0 -1234 -1 -1208 56 -1348 70 -171 228 -330 400 -400 140 -57 114 -56
1344 -56 1228 0 1204 -1 1343 55 173 71 335 235 403 409 55 139 54 113 54
1336 0 1230 1 1204 -56 1344 -70 172 -229 330 -400 400 -140 57 -113 56 -1356
55 -1099 0 -1146 -1 -1223 -20z m2437 -18 c10 -1 20 -7 23 -12 4 -5 10 -7 15
-4 8 5 51 -11 140 -53 30 -15 59 -25 63 -24 4 1 10 -5 13 -13 4 -8 10 -15 15
-15 22 0 131 -111 125 -126 -3 -9 1 -11 11 -7 10 4 14 2 10 -4 -4 -6 0 -13 8
-16 41 -16 117 -196 134 -317 14 -97 11 -2328 -3 -2390 -11 -47 -66 -181 -82
-201 -8 -8 -14 -21 -14 -27 0 -7 -4 -12 -10 -12 -5 0 -10 -5 -10 -11 0 -6 -6
-16 -12 -23 -7 -7 -27 -28 -44 -47 -41 -45 -82 -79 -95 -79 -5 0 -7 -4 -4 -10
3 -5 0 -10 -8 -10 -8 0 -18 -7 -21 -16 -3 -8 -10 -13 -15 -10 -5 4 -16 -1 -25
-9 -8 -9 -18 -16 -21 -16 -2 0 -25 -8 -50 -19 -24 -10 -64 -24 -87 -30 -24 -6
-59 -16 -78 -21 -55 -15 -2341 -6 -2405 10 -27 6 -58 12 -68 12 -9 0 -15 4
-12 10 4 5 -1 10 -9 10 -32 3 -116 39 -116 51 0 4 -5 8 -11 8 -26 0 -201 165
-198 186 0 4 -3 10 -8 13 -20 14 -85 155 -103 223 -18 70 -19 125 -19 1238 0
1113 1 1168 19 1238 22 83 79 205 105 224 6 5 6 8 1 8 -6 0 -1 8 10 18 10 10
30 31 44 48 37 43 132 120 158 128 12 4 22 12 22 17 0 5 3 8 8 7 4 -1 30 8 57
21 28 12 64 25 80 28 17 3 36 10 43 16 7 5 15 7 18 4 3 -3 17 -1 32 3 22 7
2317 7 2374 1z"/>
<path d="M1490 4599 c0 -5 5 -7 10 -4 6 3 10 8 10 11 0 2 -4 4 -10 4 -5 0 -10
-5 -10 -11z"/>
<path d="M4495 4600 c3 -5 8 -10 11 -10 2 0 4 5 4 10 0 6 -5 10 -11 10 -5 0
-7 -4 -4 -10z"/>
<path d="M3635 3729 c-27 -11 -55 -19 -62 -19 -7 0 -37 -11 -67 -25 -30 -14
-57 -25 -61 -25 -3 0 -22 -7 -43 -16 -20 -10 -42 -18 -47 -19 -6 -2 -31 -12
-55 -23 -47 -20 -85 -34 -109 -38 -8 -2 -17 -6 -20 -11 -6 -8 -95 -45 -138
-58 -13 -3 -23 -11 -23 -16 0 -5 -3 -8 -7 -7 -5 0 -17 -2 -28 -6 -11 -5 -36
-14 -55 -21 -19 -7 -61 -25 -92 -39 -84 -38 -112 -49 -121 -47 -5 1 -5 -4 -1
-10 5 -9 2 -10 -9 -6 -9 3 -23 0 -31 -8 -8 -8 -26 -15 -41 -15 -15 0 -24 -4
-20 -10 3 -5 -1 -10 -10 -10 -9 0 -49 -15 -88 -34 -40 -18 -89 -39 -109 -45
-21 -7 -40 -16 -43 -21 -3 -4 -21 -11 -40 -14 -20 -4 -33 -11 -30 -15 2 -5 -8
-11 -23 -14 -15 -3 -62 -22 -105 -41 -42 -20 -86 -36 -96 -36 -11 0 -22 -4
-25 -9 -8 -12 -83 -51 -88 -45 -3 2 -26 -16 -51 -41 -46 -44 -61 -85 -37 -100
6 -4 8 -11 5 -16 -4 -5 1 -9 10 -9 9 0 14 -4 11 -8 -4 -7 47 -39 74 -47 3 -1
18 -7 33 -13 16 -7 32 -12 37 -12 5 0 30 -7 56 -16 25 -9 54 -17 63 -19 9 -2
54 -14 101 -26 52 -13 103 -19 130 -16 65 6 179 64 264 132 21 17 55 39 76 51
22 12 37 23 35 26 -3 2 13 12 35 22 22 10 40 22 40 27 0 5 7 9 15 9 8 0 15 5
15 11 0 5 5 7 10 4 6 -3 13 1 16 9 3 9 11 16 18 16 9 0 69 42 116 82 8 7 16
11 17 8 1 -3 10 2 20 10 10 8 31 21 46 29 15 8 27 18 27 23 0 4 5 8 11 8 6 0
28 13 48 29 43 34 113 72 120 66 5 -5 -99 -107 -290 -285 -62 -58 -141 -132
-175 -166 -35 -34 -67 -58 -70 -55 -4 3 -4 1 -1 -5 4 -7 -5 -19 -18 -28 -14
-9 -23 -21 -20 -25 3 -5 -1 -11 -9 -14 -18 -7 -29 -59 -21 -95 7 -32 87 -118
119 -128 11 -4 39 -21 61 -38 22 -17 58 -43 80 -57 22 -14 53 -34 69 -45 16
-10 36 -23 45 -29 8 -5 22 -17 29 -25 12 -13 13 -13 6 0 -4 8 5 3 20 -12 15
-15 41 -33 57 -40 16 -7 29 -16 29 -19 0 -4 14 -12 30 -19 17 -7 35 -21 41
-32 6 -11 17 -17 25 -14 8 3 13 2 10 -3 -3 -5 19 -21 49 -35 73 -34 153 -36
191 -3 34 29 68 91 83 147 10 41 64 337 92 505 6 39 13 79 15 90 1 11 12 79
23 150 11 72 25 157 31 190 6 33 13 85 16 115 3 30 10 78 15 105 6 28 13 98
16 157 6 105 5 109 -21 149 -16 24 -33 39 -41 35 -7 -2 -16 -2 -19 2 -14 13
-94 8 -141 -9z m155 -24 c38 -20 44 -46 37 -164 -10 -142 -105 -756 -178
-1151 -44 -234 -76 -290 -163 -290 -61 1 -103 23 -358 196 -128 87 -258 175
-289 195 -101 68 -127 116 -95 177 8 16 77 86 153 157 236 221 352 333 431
417 37 39 35 68 -4 68 -15 0 -174 -100 -418 -264 -216 -145 -407 -271 -424
-280 -65 -33 -116 -38 -216 -17 -129 27 -337 97 -364 121 -12 12 -22 30 -22
41 0 53 39 72 955 464 491 210 746 311 850 338 39 10 76 7 105 -8z"/>
<path d="M2170 3056 c0 -2 7 -7 16 -10 8 -3 12 -2 9 4 -6 10 -25 14 -25 6z"/>
<path d="M4625 4629 c-4 -6 -5 -12 -2 -15 2 -3 7 2 10 11 7 17 1 20 -8 4z"/>
<path d="M4533 1315 c0 -8 4 -12 9 -9 5 3 6 10 3 15 -9 13 -12 11 -12 -6z"/>
</g>
</svg>
